<?xml version="1.0" standalone="no"?>
<!DOCTYPE svg PUBLIC "-//W3C//DTD SVG 1.1//EN" "http://www.w3.org/Graphics/SVG/1.1/DTD/svg11.dtd" >
<svg>
<metadata>
Created by FontForge 20090914 at Tue Sep  1 11:22:50 2015
 By www-data
Copyright 2007 Luc[as] de Groot &#38; Mouneer Al Sharaani.
</metadata>
<defs>
<font id="TheMixArab-Bold" horiz-adv-x="550" >
  <font-face 
    font-family="TheMixArab"
    font-weight="700"
    font-stretch="normal"
    units-per-em="1000"
    panose-1="0 0 0 0 0 0 0 0 0 0"
    ascent="800"
    descent="-200"
    bbox="-40 -368.999 1176 1060"
    underline-thickness="50"
    underline-position="-50"
    unicode-range="U+0020-U+FEFC"
  />
<missing-glyph horiz-adv-x="500" 
 />
    <glyph glyph-name="uniFB51" unicode="&#x671;" horiz-adv-x="320" arabic-form="final" 
d="M10 718h45.001c5.33301 18 12.666 35 21.999 51s20.5 30 33.5 42s27.833 21.5 44.5 28.5s34.667 10.5 54 10.5c28 0 50.833 -7.5 68.5 -22.5s26.5 -39.833 26.5 -74.5v-89h-294v54zM229.001 718l0.000976562 25.001c0 19.333 -2.33301 32.666 -7 39.999
s-11.667 11 -21 11c-7.33301 0 -14.833 -2.33301 -22.5 -7s-14.834 -10.667 -21.501 -18s-12.5 -15.5 -17.5 -24.5s-8.83301 -17.833 -11.5 -26.5h101zM138.002 500.001c-12 1.33301 -25.832 2.49805 -41.499 3.49805s-30.834 2.16699 -45.501 3.5v80
c32 4.66699 66.5 8.33398 103.5 11.001s74.167 3.33398 111.5 2.00098v-496h74v-104h-202v500z" />
    <glyph glyph-name="uniFB57" unicode="&#x67e;" horiz-adv-x="763" arabic-form="final" 
d="M422 0c-75.333 0 -137.5 8.00098 -186.5 24.001s-88 37.667 -117 65s-49.333 59 -61 95s-17.5 73.667 -17.5 113c0 21.333 1.83301 44.833 5.5 70.5s8.16699 49.167 13.5 70.5l135 25c-9.33301 -24 -16 -48.167 -20 -72.5s-6 -50.5 -6 -78.5
c0 -32.667 4.33301 -61.834 13 -87.501s23.5 -47.5 44.5 -65.5s49 -31.667 84 -41s78.5 -14 130.5 -14h135v356h128v-356h80v-104h-361v0zM453 -332.999c-16.667 0 -30.5 6.16699 -41.5 18.5s-16.5 26.166 -16.5 41.499c0 16.667 5.5 30.834 16.5 42.501
s24.833 17.5 41.5 17.5s30.5 -5.83301 41.5 -17.5s16.5 -25.834 16.5 -42.501c0 -15.333 -5.5 -29.166 -16.5 -41.499s-24.833 -18.5 -41.5 -18.5zM381 -205.999c-18 0 -33 6.5 -45 19.5s-18 28.5 -18 46.5c0 17.333 6 32.5 18 45.5s27 19.5 45 19.5s32.833 -6.5 44.5 -19.5
s17.5 -28.167 17.5 -45.5c0 -18 -5.83301 -33.5 -17.5 -46.5s-26.5 -19.5 -44.5 -19.5zM528 -205.999c-18 0 -33 6.5 -45 19.5s-18 28.5 -18 46.5c0 17.333 6 32.5 18 45.5s27 19.5 45 19.5s32.833 -6.5 44.5 -19.5s17.5 -28.167 17.5 -45.5
c0 -18 -5.83301 -33.5 -17.5 -46.5s-26.5 -19.5 -44.5 -19.5z" />
    <glyph glyph-name="uniFB58" unicode="&#x67e;" horiz-adv-x="327" arabic-form="initial" 
d="M5 104h140v356h127v-460h-267v104zM126 -330c-16.667 0 -30.5 6.16699 -41.5 18.5s-16.5 26.166 -16.5 41.499c0 16.667 5.5 30.834 16.5 42.501s24.833 17.5 41.5 17.5s30.5 -5.83301 41.5 -17.5s16.5 -25.834 16.5 -42.501c0 -15.333 -5.5 -29.166 -16.5 -41.499
s-24.833 -18.5 -41.5 -18.5zM54 -203c-18 0 -33 6.5 -45 19.5s-18 28.5 -18 46.5c0 17.333 6 32.5 18 45.5s27 19.5 45 19.5s32.833 -6.5 44.5 -19.5s17.5 -28.167 17.5 -45.5c0 -18 -5.83301 -33.5 -17.5 -46.5s-26.5 -19.5 -44.5 -19.5zM201 -203c-18 0 -33 6.5 -45 19.5
s-18 28.5 -18 46.5c0 17.333 6 32.5 18 45.5s27 19.5 45 19.5s32.833 -6.5 44.5 -19.5s17.5 -28.167 17.5 -45.5c0 -18 -5.83301 -33.5 -17.5 -46.5s-26.5 -19.5 -44.5 -19.5z" />
    <glyph glyph-name="uniFB59" unicode="&#x67e;" horiz-adv-x="342" arabic-form="medial" 
d="M1 104h140v356h127v-356h94v-104h-361v104zM225 -205c-18 0 -33 6.5 -45 19.5s-18 28.5 -18 46.5c0 17.333 6 32.5 18 45.5s27 19.5 45 19.5s32.833 -6.5 44.5 -19.5s17.5 -28.167 17.5 -45.5c0 -18 -5.83301 -33.5 -17.5 -46.5s-26.5 -19.5 -44.5 -19.5zM78 -205
c-18 0 -33 6.5 -45 19.5s-18 28.5 -18 46.5c0 17.333 6 32.5 18 45.5s27 19.5 45 19.5s32.833 -6.5 44.5 -19.5s17.5 -28.167 17.5 -45.5c0 -18 -5.83301 -33.5 -17.5 -46.5s-26.5 -19.5 -44.5 -19.5zM150 -332c-16.667 0 -30.5 6.16699 -41.5 18.5
s-16.5 26.166 -16.5 41.499c0 16.667 5.5 30.834 16.5 42.501s24.833 17.5 41.5 17.5s30.5 -5.83301 41.5 -17.5s16.5 -25.834 16.5 -42.501c0 -15.333 -5.5 -29.166 -16.5 -41.499s-24.833 -18.5 -41.5 -18.5z" />
    <glyph glyph-name="uniFB6B" unicode="&#x6a4;" horiz-adv-x="884" arabic-form="final" 
d="M391 0c-70.667 0 -128.668 8.00195 -174.001 24.002s-81.166 38 -107.499 66s-44.5 61.167 -54.5 99.5s-15 79.833 -15 124.5c0 17.333 2 38 6 62s8.33301 44.667 13 62l135 25c-9.33301 -27.333 -16 -50.833 -20 -70.5s-6 -43.167 -6 -70.5
c0 -34.667 3.5 -65.5 10.5 -92.5s20.333 -49.833 40 -68.5s47.167 -32.834 82.5 -42.501s81 -14.5 137 -14.5c-9.33301 11.333 -17.833 28.666 -25.5 51.999s-11.5 51.333 -11.5 84c0 30 5.33301 59 16 87s26.167 53 46.5 75s45.5 39.667 75.5 53s64 20 102 20
c32 0 61.5 -5.33301 88.5 -16s50.333 -26.167 70 -46.5s35 -44.833 46 -73.5s16.5 -61 16.5 -97c0 -33.333 -4.83301 -61.833 -14.5 -85.5s-18.5 -41.167 -26.5 -52.5h83v-104h-513v0zM626.999 103.002c17.333 0 32.499 3.83301 45.499 11.5s24 18 33 31
s15.667 27.833 20 44.5s6.5 34 6.5 52c0 15.333 -2 30.5 -6 45.5s-10.167 28.333 -18.5 40s-18.666 21.167 -30.999 28.5s-27.166 11 -44.499 11c-16.667 0 -31.334 -3.5 -44.001 -10.5s-23.167 -16.5 -31.5 -28.5s-14.5 -26 -18.5 -42s-6 -33.333 -6 -52
c0 -38 8.33301 -69.333 25 -94s40 -37 70 -37zM634.998 676.002c-16.667 0 -30.5 6.16699 -41.5 18.5s-16.5 26.166 -16.5 41.499c0 16.667 5.5 30.834 16.5 42.501s24.833 17.5 41.5 17.5s30.5 -5.83301 41.5 -17.5s16.5 -25.834 16.5 -42.501
c0 -15.333 -5.5 -29.166 -16.5 -41.499s-24.833 -18.5 -41.5 -18.5zM562.998 546.002c-18 0 -33 6.5 -45 19.5s-18 28.5 -18 46.5c0 17.333 6 32.5 18 45.5s27 19.5 45 19.5s32.833 -6.5 44.5 -19.5s17.5 -28.167 17.5 -45.5c0 -18 -5.83301 -33.5 -17.5 -46.5
s-26.5 -19.5 -44.5 -19.5zM709.998 546.002c-18 0 -33 6.5 -45 19.5s-18 28.5 -18 46.5c0 17.333 6 32.5 18 45.5s27 19.5 45 19.5s32.833 -6.5 44.5 -19.5s17.5 -28.167 17.5 -45.5c0 -18 -5.83301 -33.5 -17.5 -46.5s-26.5 -19.5 -44.5 -19.5z" />
    <glyph glyph-name="uniFB6C" unicode="&#x6a4;" horiz-adv-x="612" arabic-form="initial" 
d="M0 104l137.002 0.000976562c-10.667 14 -19.334 32.167 -26.001 54.5s-10 49.5 -10 81.5c0 28.667 5.16699 57 15.5 85s25.666 53.167 45.999 75.5s45.5 40.333 75.5 54s64.333 20.5 103 20.5c34.667 0 65.667 -5.83301 93 -17.5s50.5 -27.834 69.5 -48.501
s33.5 -45.167 43.5 -73.5s15 -59.5 15 -93.5c0 -36 -6.33301 -69 -19 -99s-30.334 -55.5 -53.001 -76.5s-49.667 -37.333 -81 -49s-65.666 -17.5 -102.999 -17.5h-306v104zM327.002 103.001c18 0 33.6699 4 47.0029 12s24.166 18.5 32.499 31.5s14.666 27.833 18.999 44.5
s6.5 33.667 6.5 51c0 34.667 -8.83301 64.167 -26.5 88.5s-42.167 36.5 -73.5 36.5c-18.667 0 -34.334 -4 -47.001 -12s-23 -18.167 -31 -30.5s-13.667 -26.5 -17 -42.5s-5 -32 -5 -48c0 -17.333 2 -34 6 -50s9.83301 -30 17.5 -42s17.5 -21.5 29.5 -28.5s26 -10.5 42 -10.5
zM347.005 676.001c-16.667 0 -30.5 6.16699 -41.5 18.5s-16.5 26.166 -16.5 41.499c0 16.667 5.5 30.834 16.5 42.501s24.833 17.5 41.5 17.5s30.5 -5.83301 41.5 -17.5s16.5 -25.834 16.5 -42.501c0 -15.333 -5.5 -29.166 -16.5 -41.499s-24.833 -18.5 -41.5 -18.5z
M275.005 546.001c-18 0 -33 6.5 -45 19.5s-18 28.5 -18 46.5c0 17.333 6 32.5 18 45.5s27 19.5 45 19.5s32.833 -6.5 44.5 -19.5s17.5 -28.167 17.5 -45.5c0 -18 -5.83301 -33.5 -17.5 -46.5s-26.5 -19.5 -44.5 -19.5zM422.005 546.001c-18 0 -33 6.5 -45 19.5
s-18 28.5 -18 46.5c0 17.333 6 32.5 18 45.5s27 19.5 45 19.5s32.833 -6.5 44.5 -19.5s17.5 -28.167 17.5 -45.5c0 -18 -5.83301 -33.5 -17.5 -46.5s-26.5 -19.5 -44.5 -19.5z" />
    <glyph glyph-name="uniFB6D" unicode="&#x6a4;" horiz-adv-x="604" arabic-form="medial" 
d="M321 676c-16.667 0 -30.5 6.16699 -41.5 18.5s-16.5 26.166 -16.5 41.499c0 16.667 5.5 30.834 16.5 42.501s24.833 17.5 41.5 17.5s30.5 -5.83301 41.5 -17.5s16.5 -25.834 16.5 -42.501c0 -15.333 -5.5 -29.166 -16.5 -41.499s-24.833 -18.5 -41.5 -18.5zM249 546
c-18 0 -33 6.5 -45 19.5s-18 28.5 -18 46.5c0 17.333 6 32.5 18 45.5s27 19.5 45 19.5s32.833 -6.5 44.5 -19.5s17.5 -28.167 17.5 -45.5c0 -18 -5.83301 -33.5 -17.5 -46.5s-26.5 -19.5 -44.5 -19.5zM396 546c-18 0 -33 6.5 -45 19.5s-18 28.5 -18 46.5
c0 17.333 6 32.5 18 45.5s27 19.5 45 19.5s32.833 -6.5 44.5 -19.5s17.5 -28.167 17.5 -45.5c0 -18 -5.83301 -33.5 -17.5 -46.5s-26.5 -19.5 -44.5 -19.5zM0 104l138.998 0.000976562c-12 17.333 -21.333 37.166 -28 59.499s-10 47.833 -10 76.5
c0 29.333 5.33301 58.166 16 86.499s26.334 53.5 47.001 75.5s45.834 39.667 75.501 53s63.5 20 101.5 20c28 0 55.333 -4.66699 82 -14s50.167 -23.5 70.5 -42.5s36.833 -43.167 49.5 -72.5s19 -64 19 -104c0 -32 -5.16699 -60.167 -15.5 -84.5
s-19.5 -42.166 -27.5 -53.499h105v-104h-624v104zM326.998 103.001c18 0 33.6699 4.16602 47.0029 12.499s24.166 19 32.499 32s14.666 27.833 18.999 44.5s6.5 33.334 6.5 50.001c0 38 -9.16699 68.333 -27.5 91s-42.5 34 -72.5 34
c-18.667 0 -34.334 -3.83301 -47.001 -11.5s-23 -17.667 -31 -30s-13.667 -26.5 -17 -42.5s-5 -32.333 -5 -49s1.83301 -32.834 5.5 -48.501s9.5 -29.667 17.5 -42s18 -22.166 30 -29.499s26 -11 42 -11z" />
    <glyph glyph-name="uniFB7B" unicode="&#x686;" horiz-adv-x="588" arabic-form="final" 
d="M263 -249c-32.667 0 -62.8359 3.5 -90.5029 10.5s-51.167 17.667 -70.5 32s-34.5 32.166 -45.5 53.499s-16.5 46.666 -16.5 75.999c0 57.333 23.333 102.333 70 135s116.667 49 210 49h97v92c0 28.667 -3.16699 53 -9.5 73s-17 36.333 -32 49s-34.833 22 -59.5 28
s-55 9 -91 9h-23.5c-6.33301 0 -12.166 -0.166992 -17.499 -0.5s-11.166 -0.666016 -17.499 -0.999023s-14.166 -1.16602 -23.499 -2.49902l10 102c8 1.33301 14.833 2.16602 20.5 2.49902l17 1c5.66699 0.333008 12 0.5 19 0.5h26.5c55.333 0 102.833 -5.83301 142.5 -17.5
s72.167 -28 97.5 -49s43.833 -46.167 55.5 -75.5s17.5 -61.666 17.5 -96.999v-117h94v-104h-335c-48 0 -82.667 -5.83301 -104 -17.5s-32 -29.167 -32 -52.5c0 -48.667 34.667 -73 104 -73l-13 -106v0zM532.998 -206c-18 0 -33 6.5 -45 19.5s-18 28.5 -18 46.5
c0 17.333 6 32.5 18 45.5s27 19.5 45 19.5s32.833 -6.5 44.5 -19.5s17.5 -28.167 17.5 -45.5c0 -18 -5.83301 -33.5 -17.5 -46.5s-26.5 -19.5 -44.5 -19.5zM385.998 -206c-18 0 -33 6.5 -45 19.5s-18 28.5 -18 46.5c0 17.333 6 32.5 18 45.5s27 19.5 45 19.5
s32.833 -6.5 44.5 -19.5s17.5 -28.167 17.5 -45.5c0 -18 -5.83301 -33.5 -17.5 -46.5s-26.5 -19.5 -44.5 -19.5zM457.998 -333c-16.667 0 -30.5 6.16699 -41.5 18.5s-16.5 26.166 -16.5 41.499c0 16.667 5.5 30.834 16.5 42.501s24.833 17.5 41.5 17.5
s30.5 -5.83301 41.5 -17.5s16.5 -25.834 16.5 -42.501c0 -15.333 -5.5 -29.166 -16.5 -41.499s-24.833 -18.5 -41.5 -18.5z" />
    <glyph glyph-name="uniFB7C" unicode="&#x686;" horiz-adv-x="532" arabic-form="initial" 
d="M0 104h340.001v90c0 30 -3.16699 55.333 -9.5 76s-16.833 37.5 -31.5 50.5s-33.5 22.5 -56.5 28.5s-51.167 9 -84.5 9c-18.667 0 -35.834 -0.333008 -51.501 -1s-29.167 -1.66699 -40.5 -3l10 102c11.333 1.33301 24.333 2.33301 39 3s32.667 1 54 1
c56 0 103.333 -6.33301 142 -19s70 -30 94 -52s41.167 -47.833 51.5 -77.5s15.5 -61.5 15.5 -95.5v-216h-472v104zM196.001 -332c-16.667 0 -30.5 6.16699 -41.5 18.5s-16.5 26.166 -16.5 41.499c0 16.667 5.5 30.834 16.5 42.501s24.833 17.5 41.5 17.5
s30.5 -5.83301 41.5 -17.5s16.5 -25.834 16.5 -42.501c0 -15.333 -5.5 -29.166 -16.5 -41.499s-24.833 -18.5 -41.5 -18.5zM124.001 -205c-18 0 -33 6.5 -45 19.5s-18 28.5 -18 46.5c0 17.333 6 32.5 18 45.5s27 19.5 45 19.5s32.833 -6.5 44.5 -19.5
s17.5 -28.167 17.5 -45.5c0 -18 -5.83301 -33.5 -17.5 -46.5s-26.5 -19.5 -44.5 -19.5zM271.001 -205c-18 0 -33 6.5 -45 19.5s-18 28.5 -18 46.5c0 17.333 6 32.5 18 45.5s27 19.5 45 19.5s32.833 -6.5 44.5 -19.5s17.5 -28.167 17.5 -45.5
c0 -18 -5.83301 -33.5 -17.5 -46.5s-26.5 -19.5 -44.5 -19.5z" />
    <glyph glyph-name="uniFB7D" unicode="&#x686;" horiz-adv-x="546" arabic-form="medial" 
d="M0 104h340.001v90c0 30 -3.16699 55.333 -9.5 76s-16.833 37.5 -31.5 50.5s-33.5 22.5 -56.5 28.5s-51.167 9 -84.5 9c-18.667 0 -35.834 -0.333008 -51.501 -1s-29.167 -1.66699 -40.5 -3l10 102c11.333 1.33301 24.333 2.33301 39 3s32.667 1 54 1
c56 0 103.333 -6.33301 142 -19s70 -30 94 -52s41.167 -47.833 51.5 -77.5s15.5 -61.5 15.5 -95.5v-112h94v-104h-566v104zM273.001 -206c-18 0 -33 6.5 -45 19.5s-18 28.5 -18 46.5c0 17.333 6 32.5 18 45.5s27 19.5 45 19.5s32.833 -6.5 44.5 -19.5
s17.5 -28.167 17.5 -45.5c0 -18 -5.83301 -33.5 -17.5 -46.5s-26.5 -19.5 -44.5 -19.5zM126.001 -206c-18 0 -33 6.5 -45 19.5s-18 28.5 -18 46.5c0 17.333 6 32.5 18 45.5s27 19.5 45 19.5s32.833 -6.5 44.5 -19.5s17.5 -28.167 17.5 -45.5
c0 -18 -5.83301 -33.5 -17.5 -46.5s-26.5 -19.5 -44.5 -19.5zM198.001 -333c-16.667 0 -30.5 6.16699 -41.5 18.5s-16.5 26.166 -16.5 41.499c0 16.667 5.5 30.834 16.5 42.501s24.833 17.5 41.5 17.5s30.5 -5.83301 41.5 -17.5s16.5 -25.834 16.5 -42.501
c0 -15.333 -5.5 -29.166 -16.5 -41.499s-24.833 -18.5 -41.5 -18.5z" />
    <glyph glyph-name="uniFB8B" unicode="&#x698;" horiz-adv-x="339" arabic-form="final" 
d="M12 -250c-18 0 -35.333 1.00195 -52 3.00195l10 104c14.667 -2 29.334 -3 44.001 -3c42 0 73 9.83301 93 29.5s30 55.5 30 107.5v469h128v-356h94v-104h-94v-4c0 -32 -3.66699 -62.833 -11 -92.5s-20.5 -55.834 -39.5 -78.501s-44.833 -40.834 -77.5 -54.501
s-74.334 -20.5 -125.001 -20.5zM127 533.002c-18 0 -33 6.5 -45 19.5s-18 28.5 -18 46.5c0 17.333 6 32.5 18 45.5s27 19.5 45 19.5s32.833 -6.5 44.5 -19.5s17.5 -28.167 17.5 -45.5c0 -18 -5.83301 -33.5 -17.5 -46.5s-26.5 -19.5 -44.5 -19.5zM274 533.002
c-18 0 -33 6.5 -45 19.5s-18 28.5 -18 46.5c0 17.333 6 32.5 18 45.5s27 19.5 45 19.5s32.833 -6.5 44.5 -19.5s17.5 -28.167 17.5 -45.5c0 -18 -5.83301 -33.5 -17.5 -46.5s-26.5 -19.5 -44.5 -19.5zM199 663.002c-16.667 0 -30.5 6.16699 -41.5 18.5
s-16.5 26.166 -16.5 41.499c0 16.667 5.5 30.834 16.5 42.501s24.833 17.5 41.5 17.5s30.5 -5.83301 41.5 -17.5s16.5 -25.834 16.5 -42.501c0 -15.333 -5.5 -29.166 -16.5 -41.499s-24.833 -18.5 -41.5 -18.5z" />
    <glyph glyph-name="uniFB8F" unicode="&#x6a9;" horiz-adv-x="855" arabic-form="final" 
d="M422 0c-75.333 0 -137.499 8.00391 -186.499 24.0039s-88 37.667 -117 65s-49.333 59 -61 95s-17.5 73.667 -17.5 113c0 21.333 1.83301 44.833 5.5 70.5s8.16699 49.167 13.5 70.5l135 25c-9.33301 -24 -16 -48.167 -20 -72.5s-6 -50.5 -6 -78.5
c0 -32.667 4.33301 -61.834 13 -87.501s23.5 -47.5 44.5 -65.5s49 -31.667 84 -41s78.5 -14 130.5 -14h235c-0.666992 36 -6.83398 71.5 -18.501 106.5s-29.667 66.167 -54 93.5s-55.333 49.666 -93 66.999s-82.834 26.333 -135.501 27v86
c74.667 38 149.167 79.167 223.5 123.5l223.5 129.5v-117l-139 -76.5c-48.667 -27.667 -98.667 -52.167 -150 -73.5c46.667 -10 86.667 -26.667 120 -50s61 -51.333 83 -84s38.333 -68.834 49 -108.501s16.334 -80.834 17.001 -123.501h74v-104h-453v0z" />
    <glyph glyph-name="uniFB90" unicode="&#x6a9;" horiz-adv-x="476" arabic-form="initial" 
d="M0 104h298.999c-0.666992 36 -7.16699 70.833 -19.5 104.5s-30.833 63.5 -55.5 89.5s-55.667 47.5 -93 64.5s-81.666 27.167 -132.999 30.5v91l225 126.5l223 126.5v-138l-63 -33l-59 -30.5l-64 -32.5l-76 -39c42.667 -14 79.167 -33 109.5 -57s55.333 -51.833 75 -83.5
s34 -66.667 43 -105s13.5 -79.5 13.5 -123.5v-95h-425v104z" />
    <glyph glyph-name="uniFB91" unicode="&#x6a9;" horiz-adv-x="479" arabic-form="medial" 
d="M0 104h298.999c-0.666992 36 -7.16699 70.833 -19.5 104.5s-30.833 63.5 -55.5 89.5s-55.667 47.5 -93 64.5s-81.666 27.167 -132.999 30.5v91l225 126.5l223 126.5v-138l-63 -33l-59 -30.5l-64 -32.5l-76 -39c42 -14 78 -32.667 108 -56s54.833 -50.5 74.5 -81.5
s34.167 -65.167 43.5 -102.5s14.333 -77.333 15 -120h74v-104h-499v104z" />
    <glyph glyph-name="uniFB93" unicode="&#x6af;" horiz-adv-x="855" arabic-form="final" 
d="M422 0c-75.333 0 -137.499 8.00391 -186.499 24.0039s-88 37.667 -117 65s-49.333 59 -61 95s-17.5 73.667 -17.5 113c0 21.333 1.83301 44.833 5.5 70.5s8.16699 49.167 13.5 70.5l135 25c-9.33301 -24 -16 -48.167 -20 -72.5s-6 -50.5 -6 -78.5
c0 -32.667 4.33301 -61.834 13 -87.501s23.5 -47.5 44.5 -65.5s49 -31.667 84 -41s78.5 -14 130.5 -14h235c-0.666992 36 -6.83398 71.5 -18.501 106.5s-29.667 66.167 -54 93.5s-55.333 49.666 -93 66.999s-82.834 26.333 -135.501 27v86
c74.667 38 149.167 79.167 223.5 123.5l223.5 129.5v-117l-139 -76.5c-48.667 -27.667 -98.667 -52.167 -150 -73.5c46.667 -10 86.667 -26.667 120 -50s61 -51.333 83 -84s38.333 -68.834 49 -108.501s16.334 -80.834 17.001 -123.501h74v-104h-453v0zM374.001 638.004
l436 255v-107l-436 -255v107z" />
    <glyph glyph-name="uniFB94" unicode="&#x6af;" horiz-adv-x="482" arabic-form="initial" 
d="M-2 638l436 255v-107l-436 -255v107zM6 104h298.999c-0.666992 36 -7.16699 70.833 -19.5 104.5s-30.833 63.5 -55.5 89.5s-55.667 47.5 -93 64.5s-81.666 27.167 -132.999 30.5v91l225 126.5l223 126.5v-138l-63 -33l-59 -30.5l-64 -32.5l-76 -39
c42.667 -14 79.167 -33 109.5 -57s55.333 -51.833 75 -83.5s34 -66.667 43 -105s13.5 -79.5 13.5 -123.5v-95h-425v104z" />
    <glyph glyph-name="uniFB95" unicode="&#x6af;" horiz-adv-x="483" arabic-form="medial" 
d="M4 104h298.999c-0.666992 36 -7.16699 70.833 -19.5 104.5s-30.833 63.5 -55.5 89.5s-55.667 47.5 -93 64.5s-81.666 27.167 -132.999 30.5v91l225 126.5l223 126.5v-138l-63 -33l-59 -30.5l-64 -32.5l-76 -39c42 -14 78 -32.667 108 -56s54.833 -50.5 74.5 -81.5
s34.167 -65.167 43.5 -102.5s14.333 -77.333 15 -120h74v-104h-499v104zM-2.00098 638l436 255v-107l-436 -255v107z" />
    <glyph glyph-name="uniFB9F" unicode="&#x6ba;" horiz-adv-x="637" arabic-form="final" 
d="M295 -248c-45.333 0 -84.168 7.83203 -116.501 23.499s-58.666 37.5 -78.999 65.5s-35.333 60.833 -45 98.5s-14.5 78.5 -14.5 122.5c0 24.667 2.33301 52.834 7 84.501s11.334 61.5 20.001 89.5l135 25c-11.333 -34 -19.833 -65 -25.5 -93s-8.5 -55.667 -8.5 -83
c0 -78.667 10.5 -136.5 31.5 -173.5s55.167 -55.5 102.5 -55.5c22 0 41.5 3.83301 58.5 11.5s31 20.5 42 38.5s19.333 41.667 25 71s8.5 66 8.5 110v373h127v-356h94v-104h-99c-10.667 -90 -37.834 -153.833 -81.501 -191.5s-104.167 -56.5 -181.5 -56.5z" />
    <glyph glyph-name="uniFBE8" unicode="&#x649;" horiz-adv-x="327" arabic-form="initial" 
d="M0 104h140v356h127v-460h-267v104z" />
    <glyph glyph-name="uniFBE9" unicode="&#x649;" horiz-adv-x="341" arabic-form="medial" 
d="M0 104h140v356h127v-356h94v-104h-361v104z" />
    <glyph glyph-name="uniFBFD" unicode="&#x6cc;" horiz-adv-x="1017" arabic-form="final" 
d="M816 242c0 46 -8.33301 78.502 -25 97.502s-46 28.5 -88 28.5c-7.33301 0 -14.333 -0.333008 -21 -1s-12.667 -1.33398 -18 -2.00098v-365h-242c-75.333 0 -137.5 8 -186.5 24s-88 37.667 -117 65s-49.333 59 -61 95s-17.5 73.667 -17.5 113
c0 21.333 1.83301 44.833 5.5 70.5s8.16699 49.167 13.5 70.5l135 25c-9.33301 -24 -16 -48.167 -20 -72.5s-6 -50.5 -6 -78.5c0 -32.667 4.33301 -61.834 13 -87.501s23.5 -47.5 44.5 -65.5s49 -31.667 84 -41s78.5 -14 130.5 -14h97v352c27.333 6 55 10.667 83 14
s57 5 87 5c46 0 84.167 -5.5 114.5 -16.5s54.5 -26.5 72.5 -46.5s30.667 -44.333 38 -73s11 -60.667 11 -96v-139h94v-104h-221v242z" />
    <glyph glyph-name="uniFBFE" unicode="&#x6cc;" horiz-adv-x="327" arabic-form="initial" 
d="M1 104h140v356h127v-460h-267v104zM32 -219c-20 0 -36.667 7.16699 -50 21.5s-20 31.5 -20 51.5c0 19.333 6.66699 36.166 20 50.499s30 21.5 50 21.5s36.5 -7.16699 49.5 -21.5s19.5 -31.166 19.5 -50.499c0 -20 -6.5 -37.167 -19.5 -51.5s-29.5 -21.5 -49.5 -21.5z
M195 -219c-20 0 -36.667 7.16699 -50 21.5s-20 31.5 -20 51.5c0 19.333 6.66699 36.166 20 50.499s30 21.5 50 21.5s36.5 -7.16699 49.5 -21.5s19.5 -31.166 19.5 -50.499c0 -20 -6.5 -37.167 -19.5 -51.5s-29.5 -21.5 -49.5 -21.5z" />
    <glyph glyph-name="uniFBFF" unicode="&#x6cc;" horiz-adv-x="341" arabic-form="medial" 
d="M0 104h140v356h127v-356h94v-104h-361v104zM224 -219c-20 0 -36.667 7.16699 -50 21.5s-20 31.5 -20 51.5c0 19.333 6.66699 36.166 20 50.499s30 21.5 50 21.5s36.5 -7.16699 49.5 -21.5s19.5 -31.166 19.5 -50.499c0 -20 -6.5 -37.167 -19.5 -51.5
s-29.5 -21.5 -49.5 -21.5zM61 -219c-20 0 -36.667 7.16699 -50 21.5s-20 31.5 -20 51.5c0 19.333 6.66699 36.166 20 50.499s30 21.5 50 21.5s36.5 -7.16699 49.5 -21.5s19.5 -31.166 19.5 -50.499c0 -20 -6.5 -37.167 -19.5 -51.5s-29.5 -21.5 -49.5 -21.5z" />
    <glyph glyph-name="uniFC5E" unicode="&#xfc5e;" horiz-adv-x="312" arabic-form="isolated" 
d="M90 681c-28.667 0 -46.002 14.3359 -52.002 43.0029l-12 49c6.66699 2.66699 15.167 5.66699 25.5 9s18.833 5.66602 25.5 6.99902l11 -48c1.33301 -5.33301 3.5 -9.83301 6.5 -13.5s7.5 -5.5 13.5 -5.5c8.66699 0 15 2.83301 19 8.5s6 12.167 6 19.5
c0 2 -0.166992 3.66699 -0.5 5l-1.5 6l-3 12c-1.33301 5.33301 -3.33301 12.666 -6 21.999c6.66699 2.66699 15.334 5.66699 26.001 9s19.334 5.66602 26.001 6.99902l12 -48c2 -12.667 10 -19 24 -19c4 0 8.16699 2 12.5 6s6.5 10.667 6.5 20
c0 8.66699 -2 18.334 -6 29.001l-11 30c5.33301 1.33301 13.5 3.83301 24.5 7.5s20.5 6.16699 28.5 7.5l8 -25c2 -7.33301 3.83301 -14.833 5.5 -22.5s2.5 -14.167 2.5 -19.5c0 -12 -2.66699 -22.5 -8 -31.5s-12 -16.5 -20 -22.5s-17.167 -10.667 -27.5 -14
s-20.5 -5 -30.5 -5c-6.66699 0 -12.334 0.833008 -17.001 2.5s-8.66699 3.16699 -12 4.5c-3.33301 2 -6.33301 4 -9 6c-2.66699 -6.66699 -7 -12.667 -13 -18c-5.33301 -4.66699 -12.166 -8.83398 -20.499 -12.501s-19.5 -5.5 -33.5 -5.5zM-5.00195 937.003l53.001 11.998
l16 -71l40 9c-3.33301 10 -5 20.333 -5 31c-0.666992 12 1.33301 23 6 33s11.167 18.833 19.5 26.5s18.166 13.667 29.499 18s23.333 6.5 36 6.5c18 1.33301 33.167 -3.66699 45.5 -15s18.833 -27.333 19.5 -48c0.666992 -15.333 -4.5 -29.666 -15.5 -42.999
s-31.5 -23.666 -61.5 -30.999l-156 -38zM175.999 904.001c8 1.33301 13.8301 4.83301 17.4971 10.5s5.16699 12.167 4.5 19.5c0 6 -1.66699 11.833 -5 17.5s-8.66602 8.5 -15.999 8.5c-9.33301 -0.666992 -16.166 -4.33398 -20.499 -11.001s-6.16602 -14.667 -5.49902 -24
c0 -7.33301 2.33301 -15.666 7 -24.999z" />
    <glyph glyph-name="uniFC5F" unicode="&#xfc5f;" horiz-adv-x="335" arabic-form="isolated" 
d="M90 837c-28.667 0 -46.002 14.3359 -52.002 43.0029l-12 49c6.66699 2.66699 15.167 5.66699 25.5 9s18.833 5.66602 25.5 6.99902l11 -48c1.33301 -5.33301 3.5 -9.83301 6.5 -13.5s7.5 -5.5 13.5 -5.5c8.66699 0 15 2.83301 19 8.5s6 12.167 6 19.5
c0 2 -0.166992 3.66699 -0.5 5l-1.5 6l-3 12c-1.33301 5.33301 -3.33301 12.666 -6 21.999c6.66699 2.66699 15.334 5.66699 26.001 9s19.334 5.66602 26.001 6.99902l12 -48c2 -12.667 10 -19 24 -19c4 0 8.16699 2 12.5 6s6.5 10.667 6.5 20
c0 8.66699 -2 18.334 -6 29.001l-11 30c5.33301 1.33301 13.5 3.83301 24.5 7.5s20.5 6.16699 28.5 7.5l8 -25c2 -7.33301 3.83301 -14.833 5.5 -22.5s2.5 -14.167 2.5 -19.5c0 -12 -2.66699 -22.5 -8 -31.5s-12 -16.5 -20 -22.5s-17.167 -10.667 -27.5 -14
s-20.5 -5 -30.5 -5c-6.66699 0 -12.334 0.833008 -17.001 2.5s-8.66699 3.16699 -12 4.5c-3.33301 2 -6.33301 4 -9 6c-2.66699 -6.66699 -7 -12.667 -13 -18c-5.33301 -4.66699 -12.166 -8.83398 -20.499 -12.501s-19.5 -5.5 -33.5 -5.5zM77.998 699.003l234 44l7 -49
l-234 -44zM62.998 786.003l234 44l10 -48l-234 -44z" />
    <glyph glyph-name="uniFC60" unicode="&#xfc60;" horiz-adv-x="314" arabic-form="isolated" 
d="M102 660c-28.667 0 -46.002 14.3359 -52.002 43.0029l-12 49c6.66699 2.66699 15.167 5.66699 25.5 9s18.833 5.66602 25.5 6.99902l11 -48c1.33301 -5.33301 3.5 -9.83301 6.5 -13.5s7.5 -5.5 13.5 -5.5c8.66699 0 15 2.83301 19 8.5s6 12.167 6 19.5
c0 2 -0.166992 3.66699 -0.5 5l-1.5 6l-3 12c-1.33301 5.33301 -3.33301 12.666 -6 21.999c6.66699 2.66699 15.334 5.66699 26.001 9s19.334 5.66602 26.001 6.99902l12 -48c2 -12.667 10 -19 24 -19c4 0 8.16699 2 12.5 6s6.5 10.667 6.5 20
c0 8.66699 -2 18.334 -6 29.001l-11 30c5.33301 1.33301 13.5 3.83301 24.5 7.5s20.5 6.16699 28.5 7.5l8 -25c2 -7.33301 3.83301 -14.833 5.5 -22.5s2.5 -14.167 2.5 -19.5c0 -12 -2.66699 -22.5 -8 -31.5s-12 -16.5 -20 -22.5s-17.167 -10.667 -27.5 -14
s-20.5 -5 -30.5 -5c-6.66699 0 -12.334 0.833008 -17.001 2.5s-8.66699 3.16699 -12 4.5c-3.33301 2 -6.33301 4 -9 6c-2.66699 -6.66699 -7 -12.667 -13 -18c-5.33301 -4.66699 -12.166 -8.83398 -20.499 -12.501s-19.5 -5.5 -33.5 -5.5zM17.998 858.003l232 56l9 -49
l-231 -55z" />
    <glyph glyph-name="uniFC61" unicode="&#xfc61;" horiz-adv-x="312" arabic-form="isolated" 
d="M41 853l56 11.999c-1.33301 4.66699 -2.5 9.5 -3.5 14.5s-1.5 9.83301 -1.5 14.5c-0.666992 11.333 1.16602 22 5.49902 32s10.333 19 18 27s16.834 14.333 27.501 19s22.334 7.33398 35.001 8.00098c19.333 1.33301 35.666 -4 48.999 -16s20.333 -28 21 -48
c1.33301 -16 -3.5 -30.5 -14.5 -43.5s-31.833 -23.167 -62.5 -30.5l-121 -28zM97 659.999l-6.00391 0.00195312c-1.33301 0.666992 -2.33301 1 -3 1s-1.66699 0.333008 -3 1c-1.33301 0 -2.33301 0.333008 -3 1c-17.333 4.66699 -28 18 -32 40l-12 49l2 1h2
c0.666992 0.666992 1.33398 1 2.00098 1c0.666992 0.666992 1.66699 1 3 1c2.66699 1.33301 6.66699 2.66602 12 3.99902c1.33301 0.666992 2.83301 1.33398 4.5 2.00098s3.5 1.33398 5.5 2.00098c3.33301 1.33301 6.33301 2.16602 9 2.49902s5.33398 0.833008 8.00098 1.5
l2 1h1l11 -48v-1c1.33301 -4 3.16602 -7.66699 5.49902 -11s5.5 -5.66602 9.5 -6.99902h5c10.667 0 18.334 5 23.001 15c1.33301 5.33301 2 9.66602 2 12.999s-0.333008 6.33301 -1 9c-0.666992 1.33301 -1.33398 3.16602 -2.00098 5.49902s-1.66699 5.5 -3 9.5
s-2.33301 7.33301 -3 10c-0.666992 1.33301 -1 3 -1 5s-0.333008 4 -1 6l2 1c0.666992 0 1.33398 0.166992 2.00098 0.5s1.33398 0.5 2.00098 0.5c5.33301 2 11.5 4.16699 18.5 6.5s13.5 4.16602 19.5 5.49902c1.33301 0.666992 2.66602 1 3.99902 1
s2.66602 0.333008 3.99902 1l12 -48c0 -2 0.333008 -3.83301 1 -5.5s1.33398 -3.16699 2.00098 -4.5c0.666992 -0.666992 1 -1.33398 1 -2.00098l2 -2l2 -1l2 -2c0.666992 0 1.33398 -0.333008 2.00098 -1c1.33301 -0.666992 4 -1 8 -1h4h2h2l6 3c0 1.33301 0.666992 2 2 2
c1.33301 1.33301 2.5 3 3.5 5s1.83301 4 2.5 6v3c0.666992 1.33301 1 3.66602 1 6.99902s-0.333008 6 -1 8c0 1.33301 -0.166992 2.5 -0.5 3.5s-0.5 2.16699 -0.5 3.5c-1.33301 4 -2.83301 8.16699 -4.5 12.5s-3.16699 8.83301 -4.5 13.5
c0 0.666992 -0.166992 1.16699 -0.5 1.5s-0.5 0.833008 -0.5 1.5c-2.66699 6.66699 -4.33398 11.667 -5.00098 15h2c0.666992 0 1.16699 0.166992 1.5 0.5s0.833008 0.5 1.5 0.5h2c0.666992 0.666992 1.33398 1 2.00098 1s1.66699 0.333008 3 1h1
c2.66699 1.33301 4.66699 2 6 2c2.66699 1.33301 5.33398 2.33301 8.00098 3s5.66699 1.66699 9 3c1.33301 0 4 0.666992 8 2c1.33301 0 2.66602 0.333008 3.99902 1c2 0 3.33301 0.333008 4 1h1c0.666992 0 1 -0.333008 1 -1v-3c0 -0.666992 0.333008 -1.33398 1 -2.00098
c1.33301 -4.66699 3.16602 -10.667 5.49902 -18s4.16602 -15 5.49902 -23c0.666992 -1.33301 1 -3 1 -5c1.33301 -5.33301 2 -9.33301 2 -12v-3c0 -8.66699 -1.66699 -17.334 -5 -26.001c-0.666992 -0.666992 -1 -1.16699 -1 -1.5s-0.333008 -0.833008 -1 -1.5l-2 -4l-2 -4
c-9.33301 -12.667 -21.333 -22 -36 -28c-3.33301 -1.33301 -6.83301 -2.5 -10.5 -3.5s-7.16699 -2.16699 -10.5 -3.5h-3c-2 -0.666992 -5 -1 -9 -1h-6h-6h-4c-0.666992 0 -1.16699 0.166992 -1.5 0.5s-0.833008 0.5 -1.5 0.5c-5.33301 1.33301 -9 2.33301 -11 3
s-4.33301 1.66699 -7 3c-1.33301 0.666992 -2.66602 1.66699 -3.99902 3l-2 2l-1 1v-1c-0.666992 -0.666992 -1.5 -2 -2.5 -4s-2.5 -4.33301 -4.5 -7c-1.33301 -1.33301 -2.33301 -2.66602 -3 -3.99902c-1.33301 -1.33301 -2.83301 -2.66602 -4.5 -3.99902
s-3.5 -2.66602 -5.5 -3.99902c-5.33301 -3.33301 -11.666 -6.16602 -18.999 -8.49902s-16.666 -3.5 -27.999 -3.5h-5zM169.996 882.001c16.667 4 24.3311 14.3311 22.998 30.998c0 8.66699 -2.33301 15.167 -7 19.5s-9.66699 6.5 -15 6.5
c-9.33301 -0.666992 -16.166 -4.66699 -20.499 -12s-6.16602 -15.666 -5.49902 -24.999c0 -7.33301 2 -15.666 6 -24.999z" />
    <glyph glyph-name="uniFC62" unicode="&#xfc62;" horiz-adv-x="326" arabic-form="isolated" 
d="M90 719c-28.667 0 -46.002 14.3359 -52.002 43.0029l-12 49c6.66699 2.66699 15.167 5.66699 25.5 9s18.833 5.66602 25.5 6.99902l11 -48c1.33301 -5.33301 3.5 -9.83301 6.5 -13.5s7.5 -5.5 13.5 -5.5c8.66699 0 15 2.83301 19 8.5s6 12.167 6 19.5
c0 2 -0.166992 3.66699 -0.5 5l-1.5 6l-3 12c-1.33301 5.33301 -3.33301 12.666 -6 21.999c6.66699 2.66699 15.334 5.66699 26.001 9s19.334 5.66602 26.001 6.99902l12 -48c2 -12.667 10 -19 24 -19c4 0 8.16699 2 12.5 6s6.5 10.667 6.5 20
c0 8.66699 -2 18.334 -6 29.001l-11 30c5.33301 1.33301 13.5 3.83301 24.5 7.5s20.5 6.16699 28.5 7.5l8 -25c2 -7.33301 3.83301 -14.833 5.5 -22.5s2.5 -14.167 2.5 -19.5c0 -12 -2.66699 -22.5 -8 -31.5s-12 -16.5 -20 -22.5s-17.167 -10.667 -27.5 -14
s-20.5 -5 -30.5 -5c-6.66699 0 -12.334 0.833008 -17.001 2.5s-8.66699 3.16699 -12 4.5c-3.33301 2 -6.33301 4 -9 6c-2.66699 -6.66699 -7 -12.667 -13 -18c-5.33301 -4.66699 -12.166 -8.83398 -20.499 -12.501s-19.5 -5.5 -33.5 -5.5zM62.998 668.003l234 44l10 -48
l-234 -44z" />
    <glyph glyph-name="uniFC63" unicode="&#xfc63;" horiz-adv-x="312" arabic-form="isolated" 
d="M90 693c-28.667 0 -46.002 14.3359 -52.002 43.0029l-12 49c6.66699 2.66699 15.167 5.66699 25.5 9s18.833 5.66602 25.5 6.99902l11 -48c1.33301 -5.33301 3.5 -9.83301 6.5 -13.5s7.5 -5.5 13.5 -5.5c8.66699 0 15 2.83301 19 8.5s6 12.167 6 19.5
c0 2 -0.166992 3.66699 -0.5 5l-1.5 6l-3 12c-1.33301 5.33301 -3.33301 12.666 -6 21.999c6.66699 2.66699 15.334 5.66699 26.001 9s19.334 5.66602 26.001 6.99902l12 -48c2 -12.667 10 -19 24 -19c4 0 8.16699 2 12.5 6s6.5 10.667 6.5 20
c0 8.66699 -2 18.334 -6 29.001l-11 30c5.33301 1.33301 13.5 3.83301 24.5 7.5s20.5 6.16699 28.5 7.5l8 -25c2 -7.33301 3.83301 -14.833 5.5 -22.5s2.5 -14.167 2.5 -19.5c0 -12 -2.66699 -22.5 -8 -31.5s-12 -16.5 -20 -22.5s-17.167 -10.667 -27.5 -14
s-20.5 -5 -30.5 -5c-6.66699 0 -12.334 0.833008 -17.001 2.5s-8.66699 3.16699 -12 4.5c-3.33301 2 -6.33301 4 -9 6c-2.66699 -6.66699 -7 -12.667 -13 -18c-5.33301 -4.66699 -12.166 -8.83398 -20.499 -12.501s-19.5 -5.5 -33.5 -5.5zM121.998 1002h48v-141l-48 -8v149z
" />
    <glyph glyph-name="uniFE82" unicode="&#x622;" horiz-adv-x="371" arabic-form="final" 
d="M159 500c-12 1.33301 -25.832 2.49805 -41.499 3.49805s-30.834 2.16699 -45.501 3.5v80c32 4.66699 66.5 8.33398 103.5 11.001s74.167 3.33398 111.5 2.00098v-496h74v-104h-202v500zM20.001 703.998l105.998 83c12 -12 27.167 -21.167 45.5 -27.5
s34.833 -9.5 49.5 -9.5c17.333 0 34.833 3 52.5 9s33.834 15.333 48.501 28v-92c-13.333 -11.333 -30.666 -20.5 -51.999 -27.5s-42.333 -10.5 -63 -10.5c-14 0 -29 2.33301 -45 7s-29.667 12 -41 22l-59 -39z" />
    <glyph glyph-name="uniFE84" unicode="&#x623;" horiz-adv-x="305" arabic-form="final" 
d="M123 500c-12 1.33301 -25.832 2.49805 -41.499 3.49805s-30.834 2.16699 -45.501 3.5v80c32 4.66699 66.5 8.33398 103.5 11.001s74.167 3.33398 111.5 2.00098v-496h74v-104h-202v500zM20.001 737.998c4 0 9.00098 -0.165039 15.001 -0.498047s12.5 -0.833008 19.5 -1.5
s13.833 -1.5 20.5 -2.5s12.334 -2.16699 17.001 -3.5c-6 5.33301 -10.167 12.166 -12.5 20.499s-3.5 17.5 -3.5 27.5c0 12 2.5 23.333 7.5 34s12.333 20.334 22 29.001s21.667 15.5 36 20.5s31.166 7.5 50.499 7.5c10 0 21.167 -1.33301 33.5 -4s23.5 -6.33398 33.5 -11.001
l-22 -59c-6 3.33301 -13.333 6.16602 -22 8.49902s-17.334 3.5 -26.001 3.5c-10 0 -18.5 -2.83301 -25.5 -8.5s-10.5 -13.167 -10.5 -22.5c0 -25.333 20.667 -38 62 -38h52v-74h-247v74z" />
    <glyph glyph-name="uniFE86" unicode="&#x624;" horiz-adv-x="549" arabic-form="final" 
d="M171 -249c-19.333 0 -40.834 1 -64.501 3s-43.5 4.33301 -59.5 7l-7 113c22.667 -5.33301 45.834 -9.33301 69.501 -12s47.167 -4 70.5 -4c55.333 0 96.833 12.667 124.5 38s42.167 60 43.5 104h-59c-45.333 -0 -83.333 5.83301 -114 17.5s-55.5 27.5 -74.5 47.5
s-32.667 43.667 -41 71s-12.5 56.333 -12.5 87c0 32 4.83301 63 14.5 93s25 56.833 46 80.5s47.667 42.667 80 57s70.833 21.5 115.5 21.5c30 0 59.333 -1.33301 88 -4s56.667 -6.33398 84 -11.001v-356h94v-104h-94c-0.666992 -29.333 -6.66699 -58.666 -18 -87.999
s-29 -56 -53 -80s-55 -43.5 -93 -58.5s-84.667 -22.5 -140 -22.5zM347.999 104v262c-10.667 2.66699 -21 4.5 -31 5.5s-18.667 1.5 -26 1.5c-33.333 0 -60.333 -11.5 -81 -34.5s-31 -54.833 -31 -95.5c0 -44 9.83301 -78.167 29.5 -102.5s50.5 -36.5 92.5 -36.5h47z
M154.999 619c4 0 9.00098 -0.165039 15.001 -0.498047s12.5 -0.833008 19.5 -1.5s13.833 -1.5 20.5 -2.5s12.334 -2.16699 17.001 -3.5c-6 5.33301 -10.167 12.166 -12.5 20.499s-3.5 17.5 -3.5 27.5c0 12 2.5 23.333 7.5 34s12.333 20.334 22 29.001s21.667 15.5 36 20.5
s31.166 7.5 50.499 7.5c10 0 21.167 -1.33301 33.5 -4s23.5 -6.33398 33.5 -11.001l-22 -59c-6 3.33301 -13.333 6.16602 -22 8.49902s-17.334 3.5 -26.001 3.5c-10 0 -18.5 -2.83301 -25.5 -8.5s-10.5 -13.167 -10.5 -22.5c0 -25.333 20.667 -38 62 -38h52v-74h-247v74z
" />
    <glyph glyph-name="uniFE88" unicode="&#x625;" horiz-adv-x="309" arabic-form="final" 
d="M117 622c-12 1.33301 -25.832 2.49805 -41.499 3.49805s-30.834 2.16699 -45.501 3.5v80c32 4.66699 66.5 8.33398 103.5 11.001s74.167 3.33398 111.5 2.00098v-618h84v-104h-212v622zM66.001 -205.002c4 0 9.00098 -0.165039 15.001 -0.498047
s12.5 -0.833008 19.5 -1.5s13.833 -1.5 20.5 -2.5s12.334 -2.16699 17.001 -3.5c-6 5.33301 -10.167 12.166 -12.5 20.499s-3.5 17.5 -3.5 27.5c0 12 2.5 23.333 7.5 34s12.333 20.334 22 29.001s21.667 15.5 36 20.5s31.166 7.5 50.499 7.5c10 0 21.167 -1.33301 33.5 -4
s23.5 -6.33398 33.5 -11.001l-22 -59c-6 3.33301 -13.333 6.16602 -22 8.49902s-17.334 3.5 -26.001 3.5c-10 0 -18.5 -2.83301 -25.5 -8.5s-10.5 -13.167 -10.5 -22.5c0 -25.333 20.667 -38 62 -38h52v-74h-247v74z" />
    <glyph glyph-name="uniFE8A" unicode="&#x626;" horiz-adv-x="1068" arabic-form="final" 
d="M867 242c0 46 -8.33301 78.502 -25 97.502s-46 28.5 -88 28.5c-7.33301 0 -14.333 -0.333008 -21 -1s-12.667 -1.33398 -18 -2.00098v-365h-242c-75.333 0 -137.5 8 -186.5 24s-88 37.667 -117 65s-49.333 59 -61 95s-17.5 73.667 -17.5 113
c0 21.333 1.83301 44.833 5.5 70.5s8.16699 49.167 13.5 70.5l135 25c-9.33301 -24 -16 -48.167 -20 -72.5s-6 -50.5 -6 -78.5c0 -32.667 4.33301 -61.834 13 -87.501s23.5 -47.5 44.5 -65.5s49 -31.667 84 -41s78.5 -14 130.5 -14h97v352c27.333 6 55 10.667 83 14
s57 5 87 5c46 0 84.167 -5.5 114.5 -16.5s54.5 -26.5 72.5 -46.5s30.667 -44.333 38 -73s11 -60.667 11 -96v-139h94v-104h-221v242zM30 608.002c4 0 9.00098 -0.165039 15.001 -0.498047s12.5 -0.833008 19.5 -1.5s13.833 -1.5 20.5 -2.5s12.334 -2.16699 17.001 -3.5
c-6 5.33301 -10.167 12.166 -12.5 20.499s-3.5 17.5 -3.5 27.5c0 12 2.5 23.333 7.5 34s12.333 20.334 22 29.001s21.667 15.5 36 20.5s31.166 7.5 50.499 7.5c10 0 21.167 -1.33301 33.5 -4s23.5 -6.33398 33.5 -11.001l-22 -59c-6 3.33301 -13.333 6.16602 -22 8.49902
s-17.334 3.5 -26.001 3.5c-10 0 -18.5 -2.83301 -25.5 -8.5s-10.5 -13.167 -10.5 -22.5c0 -25.333 20.667 -38 62 -38h52v-74h-247v74z" />
    <glyph glyph-name="uniFE8B" unicode="&#x626;" horiz-adv-x="327" arabic-form="initial" 
d="M0 104h140v356h127v-460h-267v104zM71 607c4 0 9.00098 -0.165039 15.001 -0.498047s12.5 -0.833008 19.5 -1.5s13.833 -1.5 20.5 -2.5s12.334 -2.16699 17.001 -3.5c-6 5.33301 -10.167 12.166 -12.5 20.499s-3.5 17.5 -3.5 27.5c0 12 2.5 23.333 7.5 34
s12.333 20.334 22 29.001s21.667 15.5 36 20.5s31.166 7.5 50.499 7.5c10 0 21.167 -1.33301 33.5 -4s23.5 -6.33398 33.5 -11.001l-22 -59c-6 3.33301 -13.333 6.16602 -22 8.49902s-17.334 3.5 -26.001 3.5c-10 0 -18.5 -2.83301 -25.5 -8.5s-10.5 -13.167 -10.5 -22.5
c0 -25.333 20.667 -38 62 -38h52v-74h-247v74z" />
    <glyph glyph-name="uniFE8C" unicode="&#x626;" horiz-adv-x="341" arabic-form="medial" 
d="M0 104h140v356h127v-356h94v-104h-361v104zM69 607c4 0 9.00098 -0.165039 15.001 -0.498047s12.5 -0.833008 19.5 -1.5s13.833 -1.5 20.5 -2.5s12.334 -2.16699 17.001 -3.5c-6 5.33301 -10.167 12.166 -12.5 20.499s-3.5 17.5 -3.5 27.5c0 12 2.5 23.333 7.5 34
s12.333 20.334 22 29.001s21.667 15.5 36 20.5s31.166 7.5 50.499 7.5c10 0 21.167 -1.33301 33.5 -4s23.5 -6.33398 33.5 -11.001l-22 -59c-6 3.33301 -13.333 6.16602 -22 8.49902s-17.334 3.5 -26.001 3.5c-10 0 -18.5 -2.83301 -25.5 -8.5s-10.5 -13.167 -10.5 -22.5
c0 -25.333 20.667 -38 62 -38h52v-74h-247v74z" />
    <glyph glyph-name="uniFE8E" unicode="&#x627;" horiz-adv-x="309" arabic-form="final" 
d="M117 622c-12 1.33301 -25.832 2.49805 -41.499 3.49805s-30.834 2.16699 -45.501 3.5v80c32 4.66699 66.5 8.33398 103.5 11.001s74.167 3.33398 111.5 2.00098v-618h84v-104h-212v622z" />
    <glyph glyph-name="uniFE90" unicode="&#x628;" horiz-adv-x="763" arabic-form="final" 
d="M422 0c-75.333 0 -137.5 8.00098 -186.5 24.001s-88 37.667 -117 65s-49.333 59 -61 95s-17.5 73.667 -17.5 113c0 21.333 1.83301 44.833 5.5 70.5s8.16699 49.167 13.5 70.5l135 25c-9.33301 -24 -16 -48.167 -20 -72.5s-6 -50.5 -6 -78.5
c0 -32.667 4.33301 -61.834 13 -87.501s23.5 -47.5 44.5 -65.5s49 -31.667 84 -41s78.5 -14 130.5 -14h135v356h128v-356h80v-104h-361v0zM437 -218.999c-20 0 -37.167 7.16699 -51.5 21.5s-21.5 31.5 -21.5 51.5c0 19.333 7.16699 36.166 21.5 50.499s31.5 21.5 51.5 21.5
s37 -7.16699 51 -21.5s21 -31.166 21 -50.499c0 -20 -7 -37.167 -21 -51.5s-31 -21.5 -51 -21.5z" />
    <glyph glyph-name="uniFE91" unicode="&#x628;" horiz-adv-x="327" arabic-form="initial" 
d="M0 104h140v356h127v-460h-267v104zM141 -219c-20 0 -37.167 7.16699 -51.5 21.5s-21.5 31.5 -21.5 51.5c0 19.333 7.16699 36.166 21.5 50.499s31.5 21.5 51.5 21.5s37 -7.16699 51 -21.5s21 -31.166 21 -50.499c0 -20 -7 -37.167 -21 -51.5s-31 -21.5 -51 -21.5z" />
    <glyph glyph-name="uniFE92" unicode="&#x628;" horiz-adv-x="341" arabic-form="medial" 
d="M0 104h140v356h127v-356h94v-104h-361v104zM181 -219c-20 0 -37.167 7.16699 -51.5 21.5s-21.5 31.5 -21.5 51.5c0 19.333 7.16699 36.166 21.5 50.499s31.5 21.5 51.5 21.5s37 -7.16699 51 -21.5s21 -31.166 21 -50.499c0 -20 -7 -37.167 -21 -51.5s-31 -21.5 -51 -21.5
z" />
    <glyph glyph-name="uniFE94" unicode="&#x629;" horiz-adv-x="540" arabic-form="final" 
d="M282 0c-83.333 0 -144.5 19.835 -183.5 59.502s-58.5 94.167 -58.5 163.5c0 32.667 5.16699 64.167 15.5 94.5s26 57.166 47 80.499s47.5 42 79.5 56s70 21 114 21c30 0 59.333 -1.33301 88 -4s56.667 -6.33398 84 -11.001v-356h92v-104h-278v0zM341 104.002v262.003
c-10.667 2.66699 -21 4.5 -31 5.5s-18.667 1.5 -26 1.5c-34.667 0 -62 -11.667 -82 -35s-30 -55 -30 -95c0 -18.667 2.16699 -36.334 6.5 -53.001s11.333 -31.334 21 -44.001s22.167 -22.834 37.5 -30.501s34.333 -11.5 57 -11.5h47zM339 533.005
c-20 0 -36.667 7.16699 -50 21.5s-20 31.5 -20 51.5c0 19.333 6.66699 36.166 20 50.499s30 21.5 50 21.5s36.5 -7.16699 49.5 -21.5s19.5 -31.166 19.5 -50.499c0 -20 -6.5 -37.167 -19.5 -51.5s-29.5 -21.5 -49.5 -21.5zM176 533.005c-20 0 -36.667 7.16699 -50 21.5
s-20 31.5 -20 51.5c0 19.333 6.66699 36.166 20 50.499s30 21.5 50 21.5s36.5 -7.16699 49.5 -21.5s19.5 -31.166 19.5 -50.499c0 -20 -6.5 -37.167 -19.5 -51.5s-29.5 -21.5 -49.5 -21.5z" />
    <glyph glyph-name="uniFE96" unicode="&#x62a;" horiz-adv-x="763" arabic-form="final" 
d="M422 0c-75.333 0 -137.5 8.00098 -186.5 24.001s-88 37.667 -117 65s-49.333 59 -61 95s-17.5 73.667 -17.5 113c0 21.333 1.83301 44.833 5.5 70.5s8.16699 49.167 13.5 70.5l135 25c-9.33301 -24 -16 -48.167 -20 -72.5s-6 -50.5 -6 -78.5
c0 -32.667 4.33301 -61.834 13 -87.501s23.5 -47.5 44.5 -65.5s49 -31.667 84 -41s78.5 -14 130.5 -14h135v356h128v-356h80v-104h-361v0zM310 505.001c-20 0 -36.667 7.16699 -50 21.5s-20 31.5 -20 51.5c0 19.333 6.66699 36.166 20 50.499s30 21.5 50 21.5
s36.5 -7.16699 49.5 -21.5s19.5 -31.166 19.5 -50.499c0 -20 -6.5 -37.167 -19.5 -51.5s-29.5 -21.5 -49.5 -21.5zM473 505.001c-20 0 -36.667 7.16699 -50 21.5s-20 31.5 -20 51.5c0 19.333 6.66699 36.166 20 50.499s30 21.5 50 21.5s36.5 -7.16699 49.5 -21.5
s19.5 -31.166 19.5 -50.499c0 -20 -6.5 -37.167 -19.5 -51.5s-29.5 -21.5 -49.5 -21.5z" />
    <glyph glyph-name="uniFE97" unicode="&#x62a;" horiz-adv-x="327" arabic-form="initial" 
d="M0 104h140v356h127v-460h-267v104zM118 533c-20 0 -36.667 7.16699 -50 21.5s-20 31.5 -20 51.5c0 19.333 6.66699 36.166 20 50.499s30 21.5 50 21.5s36.5 -7.16699 49.5 -21.5s19.5 -31.166 19.5 -50.499c0 -20 -6.5 -37.167 -19.5 -51.5s-29.5 -21.5 -49.5 -21.5z
M281 533c-20 0 -36.667 7.16699 -50 21.5s-20 31.5 -20 51.5c0 19.333 6.66699 36.166 20 50.499s30 21.5 50 21.5s36.5 -7.16699 49.5 -21.5s19.5 -31.166 19.5 -50.499c0 -20 -6.5 -37.167 -19.5 -51.5s-29.5 -21.5 -49.5 -21.5z" />
    <glyph glyph-name="uniFE98" unicode="&#x62a;" horiz-adv-x="341" arabic-form="medial" 
d="M0 104h140v356h127v-356h94v-104h-361v104zM264 533c-20 0 -36.667 7.16699 -50 21.5s-20 31.5 -20 51.5c0 19.333 6.66699 36.166 20 50.499s30 21.5 50 21.5s36.5 -7.16699 49.5 -21.5s19.5 -31.166 19.5 -50.499c0 -20 -6.5 -37.167 -19.5 -51.5
s-29.5 -21.5 -49.5 -21.5zM101 533c-20 0 -36.667 7.16699 -50 21.5s-20 31.5 -20 51.5c0 19.333 6.66699 36.166 20 50.499s30 21.5 50 21.5s36.5 -7.16699 49.5 -21.5s19.5 -31.166 19.5 -50.499c0 -20 -6.5 -37.167 -19.5 -51.5s-29.5 -21.5 -49.5 -21.5z" />
    <glyph glyph-name="uniFE9A" unicode="&#x62b;" horiz-adv-x="763" arabic-form="final" 
d="M422 0c-75.333 0 -137.5 8.00098 -186.5 24.001s-88 37.667 -117 65s-49.333 59 -61 95s-17.5 73.667 -17.5 113c0 21.333 1.83301 44.833 5.5 70.5s8.16699 49.167 13.5 70.5l135 25c-9.33301 -24 -16 -48.167 -20 -72.5s-6 -50.5 -6 -78.5
c0 -32.667 4.33301 -61.834 13 -87.501s23.5 -47.5 44.5 -65.5s49 -31.667 84 -41s78.5 -14 130.5 -14h135v356h128v-356h80v-104h-361v0zM389 642.001c-16.667 0 -30.5 6.16699 -41.5 18.5s-16.5 26.166 -16.5 41.499c0 16.667 5.5 30.834 16.5 42.501
s24.833 17.5 41.5 17.5s30.5 -5.83301 41.5 -17.5s16.5 -25.834 16.5 -42.501c0 -15.333 -5.5 -29.166 -16.5 -41.499s-24.833 -18.5 -41.5 -18.5zM317 512.001c-18 0 -33 6.5 -45 19.5s-18 28.5 -18 46.5c0 17.333 6 32.5 18 45.5s27 19.5 45 19.5s32.833 -6.5 44.5 -19.5
s17.5 -28.167 17.5 -45.5c0 -18 -5.83301 -33.5 -17.5 -46.5s-26.5 -19.5 -44.5 -19.5zM464 512.001c-18 0 -33 6.5 -45 19.5s-18 28.5 -18 46.5c0 17.333 6 32.5 18 45.5s27 19.5 45 19.5s32.833 -6.5 44.5 -19.5s17.5 -28.167 17.5 -45.5
c0 -18 -5.83301 -33.5 -17.5 -46.5s-26.5 -19.5 -44.5 -19.5z" />
    <glyph glyph-name="uniFE9B" unicode="&#x62b;" horiz-adv-x="327" arabic-form="initial" 
d="M0 104h140v356h127v-460h-267v104zM199 663c-16.667 0 -30.5 6.16699 -41.5 18.5s-16.5 26.166 -16.5 41.499c0 16.667 5.5 30.834 16.5 42.501s24.833 17.5 41.5 17.5s30.5 -5.83301 41.5 -17.5s16.5 -25.834 16.5 -42.501c0 -15.333 -5.5 -29.166 -16.5 -41.499
s-24.833 -18.5 -41.5 -18.5zM127 533c-18 0 -33 6.5 -45 19.5s-18 28.5 -18 46.5c0 17.333 6 32.5 18 45.5s27 19.5 45 19.5s32.833 -6.5 44.5 -19.5s17.5 -28.167 17.5 -45.5c0 -18 -5.83301 -33.5 -17.5 -46.5s-26.5 -19.5 -44.5 -19.5zM274 533c-18 0 -33 6.5 -45 19.5
s-18 28.5 -18 46.5c0 17.333 6 32.5 18 45.5s27 19.5 45 19.5s32.833 -6.5 44.5 -19.5s17.5 -28.167 17.5 -45.5c0 -18 -5.83301 -33.5 -17.5 -46.5s-26.5 -19.5 -44.5 -19.5z" />
    <glyph glyph-name="uniFE9C" unicode="&#x62b;" horiz-adv-x="341" arabic-form="medial" 
d="M0 104h140v356h127v-356h94v-104h-361v104zM268 533c-18 0 -33 6.5 -45 19.5s-18 28.5 -18 46.5c0 17.333 6 32.5 18 45.5s27 19.5 45 19.5s32.833 -6.5 44.5 -19.5s17.5 -28.167 17.5 -45.5c0 -18 -5.83301 -33.5 -17.5 -46.5s-26.5 -19.5 -44.5 -19.5zM121 533
c-18 0 -33 6.5 -45 19.5s-18 28.5 -18 46.5c0 17.333 6 32.5 18 45.5s27 19.5 45 19.5s32.833 -6.5 44.5 -19.5s17.5 -28.167 17.5 -45.5c0 -18 -5.83301 -33.5 -17.5 -46.5s-26.5 -19.5 -44.5 -19.5zM193 663c-16.667 0 -30.5 6.16699 -41.5 18.5
s-16.5 26.166 -16.5 41.499c0 16.667 5.5 30.834 16.5 42.501s24.833 17.5 41.5 17.5s30.5 -5.83301 41.5 -17.5s16.5 -25.834 16.5 -42.501c0 -15.333 -5.5 -29.166 -16.5 -41.499s-24.833 -18.5 -41.5 -18.5z" />
    <glyph glyph-name="uniFE9E" unicode="&#x62c;" horiz-adv-x="588" arabic-form="final" 
d="M308 0c-48 0 -82.6689 -5.83203 -104.002 -17.499s-32 -29.167 -32 -52.5c0 -48.667 34.667 -73 104 -73c6.66699 0 13.5 0.166992 20.5 0.5s16.5 1.16602 28.5 2.49902l-10 -104c-18.667 -3.33301 -36 -5 -52 -5c-32.667 0 -62.834 3.5 -90.501 10.5
s-51.167 17.667 -70.5 32s-34.5 32.166 -45.5 53.499s-16.5 46.666 -16.5 75.999c0 57.333 23.333 102.333 70 135s116.667 49 210 49h62v92c0 28.667 -3.16699 53 -9.5 73s-17 36.333 -32 49s-34.833 22 -59.5 28s-55 9 -91 9h-23.5
c-6.33301 0 -12.166 -0.166992 -17.499 -0.5s-11.166 -0.666016 -17.499 -0.999023s-14.166 -1.16602 -23.499 -2.49902l10 102c8 1.33301 14.833 2.16602 20.5 2.49902l17 1c5.66699 0.333008 12 0.5 19 0.5h26.5c55.333 0 102.833 -5.83301 142.5 -17.5
s72.167 -28 97.5 -49s43.833 -46.167 55.5 -75.5s17.5 -61.666 17.5 -96.999v-117h94v-104h-300v0zM438.998 -218.999c-20 0 -37.167 7.16699 -51.5 21.5s-21.5 31.5 -21.5 51.5c0 19.333 7.16699 36.166 21.5 50.499s31.5 21.5 51.5 21.5s37 -7.16699 51 -21.5
s21 -31.166 21 -50.499c0 -20 -7 -37.167 -21 -51.5s-31 -21.5 -51 -21.5z" />
    <glyph glyph-name="uniFE9F" unicode="&#x62c;" horiz-adv-x="532" arabic-form="initial" 
d="M0 104h340.001v90c0 30 -3.16699 55.333 -9.5 76s-16.833 37.5 -31.5 50.5s-33.5 22.5 -56.5 28.5s-51.167 9 -84.5 9c-18.667 0 -35.834 -0.333008 -51.501 -1s-29.167 -1.66699 -40.5 -3l10 102c11.333 1.33301 24.333 2.33301 39 3s32.667 1 54 1
c56 0 103.333 -6.33301 142 -19s70 -30 94 -52s41.167 -47.833 51.5 -77.5s15.5 -61.5 15.5 -95.5v-216h-472v104zM197.001 -219c-20 0 -37.167 7.16699 -51.5 21.5s-21.5 31.5 -21.5 51.5c0 19.333 7.16699 36.166 21.5 50.499s31.5 21.5 51.5 21.5s37 -7.16699 51 -21.5
s21 -31.166 21 -50.499c0 -20 -7 -37.167 -21 -51.5s-31 -21.5 -51 -21.5z" />
    <glyph glyph-name="uniFEA0" unicode="&#x62c;" horiz-adv-x="546" arabic-form="medial" 
d="M0 104h340.001v90c0 30 -3.16699 55.333 -9.5 76s-16.833 37.5 -31.5 50.5s-33.5 22.5 -56.5 28.5s-51.167 9 -84.5 9c-18.667 0 -35.834 -0.333008 -51.501 -1s-29.167 -1.66699 -40.5 -3l10 102c11.333 1.33301 24.333 2.33301 39 3s32.667 1 54 1
c56 0 103.333 -6.33301 142 -19s70 -30 94 -52s41.167 -47.833 51.5 -77.5s15.5 -61.5 15.5 -95.5v-112h94v-104h-566v104zM195.001 -219c-20 0 -37.167 7.16699 -51.5 21.5s-21.5 31.5 -21.5 51.5c0 19.333 7.16699 36.166 21.5 50.499s31.5 21.5 51.5 21.5
s37 -7.16699 51 -21.5s21 -31.166 21 -50.499c0 -20 -7 -37.167 -21 -51.5s-31 -21.5 -51 -21.5z" />
    <glyph glyph-name="uniFEA2" unicode="&#x62d;" horiz-adv-x="588" arabic-form="final" 
d="M301 -249c-85.333 0 -150.166 14.001 -194.499 42.001s-66.5 71.333 -66.5 130c0 57.333 23.333 102.333 70 135s116.667 49 210 49h62v92c0 26 -2.66699 49 -8 69s-15.166 36.667 -29.499 50s-34 23.333 -59 30s-56.833 10 -95.5 10c-18.667 0 -34.667 -0.333008 -48 -1
s-24.666 -1.66699 -33.999 -3l10 102c9.33301 1.33301 20.166 2.33301 32.499 3s29.166 1 50.499 1c100 0 177.167 -19.667 231.5 -59s81.5 -99.333 81.5 -180v-117h94v-104h-300c-48 0 -82.667 -5.83301 -104 -17.5s-32 -29.167 -32 -52.5s10.333 -41.333 31 -54
s57.667 -19 111 -19c32.667 0 64.667 1.66699 96 5s63.666 7.66602 96.999 12.999l-10 -102c-32 -6.66699 -65.167 -12 -99.5 -16s-66.5 -6 -96.5 -6z" />
    <glyph glyph-name="uniFEA3" unicode="&#x62d;" horiz-adv-x="532" arabic-form="initial" 
d="M0 104h340.001v90c0 30 -3.16699 55.333 -9.5 76s-16.833 37.5 -31.5 50.5s-33.5 22.5 -56.5 28.5s-51.167 9 -84.5 9c-18.667 0 -35.834 -0.333008 -51.501 -1s-29.167 -1.66699 -40.5 -3l10 102c11.333 1.33301 24.333 2.33301 39 3s32.667 1 54 1
c56 0 103.333 -6.33301 142 -19s70 -30 94 -52s41.167 -47.833 51.5 -77.5s15.5 -61.5 15.5 -95.5v-216h-472v104z" />
    <glyph glyph-name="uniFEA4" unicode="&#x62d;" horiz-adv-x="546" arabic-form="medial" 
d="M0 104h340.001v90c0 30 -3.16699 55.333 -9.5 76s-16.833 37.5 -31.5 50.5s-33.5 22.5 -56.5 28.5s-51.167 9 -84.5 9c-18.667 0 -35.834 -0.333008 -51.501 -1s-29.167 -1.66699 -40.5 -3l10 102c11.333 1.33301 24.333 2.33301 39 3s32.667 1 54 1
c56 0 103.333 -6.33301 142 -19s70 -30 94 -52s41.167 -47.833 51.5 -77.5s15.5 -61.5 15.5 -95.5v-112h94v-104h-566v104z" />
    <glyph glyph-name="uniFEA6" unicode="&#x62e;" horiz-adv-x="588" arabic-form="final" 
d="M308 0c-48 0 -82.667 -5.83203 -104 -17.499s-32 -29.167 -32 -52.5s10.333 -41.333 31 -54s57.667 -19 111 -19c32.667 0 64.667 1.66699 96 5s63.666 7.66602 96.999 12.999l-10 -102c-32 -6.66699 -65.167 -12 -99.5 -16s-66.5 -6 -96.5 -6
c-85.333 0 -150.166 14 -194.499 42s-66.5 71.333 -66.5 130c0 57.333 23.333 102.333 70 135s116.667 49 210 49h62v92c0 26 -2.66699 49 -8 69s-15.166 36.667 -29.499 50s-34 23.333 -59 30s-56.833 10 -95.5 10c-18.667 0 -34.667 -0.333008 -48 -1
s-24.666 -1.66699 -33.999 -3l10 102c9.33301 1.33301 20.166 2.33301 32.499 3s29.166 1 50.499 1c100 0 177.167 -19.667 231.5 -59s81.5 -99.333 81.5 -180v-117h94v-104h-300v0zM254 533.001c-20 0 -37.167 7.16699 -51.5 21.5s-21.5 31.5 -21.5 51.5
c0 19.333 7.16699 36.166 21.5 50.499s31.5 21.5 51.5 21.5s37 -7.16699 51 -21.5s21 -31.166 21 -50.499c0 -20 -7 -37.167 -21 -51.5s-31 -21.5 -51 -21.5z" />
    <glyph glyph-name="uniFEA7" unicode="&#x62e;" horiz-adv-x="532" arabic-form="initial" 
d="M0 104h340.001v90c0 30 -3.16699 55.333 -9.5 76s-16.833 37.5 -31.5 50.5s-33.5 22.5 -56.5 28.5s-51.167 9 -84.5 9c-18.667 0 -35.834 -0.333008 -51.501 -1s-29.167 -1.66699 -40.5 -3l10 102c11.333 1.33301 24.333 2.33301 39 3s32.667 1 54 1
c56 0 103.333 -6.33301 142 -19s70 -30 94 -52s41.167 -47.833 51.5 -77.5s15.5 -61.5 15.5 -95.5v-216h-472v104zM191.001 533c-20 0 -37.167 7.16699 -51.5 21.5s-21.5 31.5 -21.5 51.5c0 19.333 7.16699 36.166 21.5 50.499s31.5 21.5 51.5 21.5s37 -7.16699 51 -21.5
s21 -31.166 21 -50.499c0 -20 -7 -37.167 -21 -51.5s-31 -21.5 -51 -21.5z" />
    <glyph glyph-name="uniFEA8" unicode="&#x62e;" horiz-adv-x="546" arabic-form="medial" 
d="M0 104h340.001v90c0 30 -3.16699 55.333 -9.5 76s-16.833 37.5 -31.5 50.5s-33.5 22.5 -56.5 28.5s-51.167 9 -84.5 9c-18.667 0 -35.834 -0.333008 -51.501 -1s-29.167 -1.66699 -40.5 -3l10 102c11.333 1.33301 24.333 2.33301 39 3s32.667 1 54 1
c56 0 103.333 -6.33301 142 -19s70 -30 94 -52s41.167 -47.833 51.5 -77.5s15.5 -61.5 15.5 -95.5v-112h94v-104h-566v104zM193.001 533c-20 0 -37.167 7.16699 -51.5 21.5s-21.5 31.5 -21.5 51.5c0 19.333 7.16699 36.166 21.5 50.499s31.5 21.5 51.5 21.5
s37 -7.16699 51 -21.5s21 -31.166 21 -50.499c0 -20 -7 -37.167 -21 -51.5s-31 -21.5 -51 -21.5z" />
    <glyph glyph-name="uniFEAA" unicode="&#x62f;" horiz-adv-x="504" arabic-form="final" 
d="M40 104l293 0.00195312c0 23.333 -2.83301 48.666 -8.5 75.999s-17.167 54.166 -34.5 80.499s-41.833 50.833 -73.5 73.5s-73.5 40.667 -125.5 54l10 109c67.333 -8.66699 123.833 -26.167 169.5 -52.5s82.5 -57.5 110.5 -93.5s48.167 -75.333 60.5 -118
s18.5 -84.667 18.5 -126v-3h64v-104h-484v104z" />
    <glyph glyph-name="uniFEAC" unicode="&#x630;" horiz-adv-x="504" arabic-form="final" 
d="M40 104l293 0.00195312c0 23.333 -2.83301 48.666 -8.5 75.999s-17.167 54.166 -34.5 80.499s-41.833 50.833 -73.5 73.5s-73.5 40.667 -125.5 54l10 109c67.333 -8.66699 123.833 -26.167 169.5 -52.5s82.5 -57.5 110.5 -93.5s48.167 -75.333 60.5 -118
s18.5 -84.667 18.5 -126v-3h64v-104h-484v104zM153 564.002c-20 0 -37.167 7.16699 -51.5 21.5s-21.5 31.5 -21.5 51.5c0 19.333 7.16699 36.166 21.5 50.499s31.5 21.5 51.5 21.5s37 -7.16699 51 -21.5s21 -31.166 21 -50.499c0 -20 -7 -37.167 -21 -51.5
s-31 -21.5 -51 -21.5z" />
    <glyph glyph-name="uniFEAE" unicode="&#x631;" horiz-adv-x="339" arabic-form="final" 
d="M12 -250c-18 0 -35.333 1.00195 -52 3.00195l10 104c14.667 -2 29.334 -3 44.001 -3c42 0 73 9.83301 93 29.5s30 55.5 30 107.5v469h128v-356h94v-104h-94v-4c0 -32 -3.66699 -62.833 -11 -92.5s-20.5 -55.834 -39.5 -78.501s-44.833 -40.834 -77.5 -54.501
s-74.334 -20.5 -125.001 -20.5z" />
    <glyph glyph-name="uniFEB0" unicode="&#x632;" horiz-adv-x="339" arabic-form="final" 
d="M12 -250c-18 0 -35.333 1.00195 -52 3.00195l10 104c14.667 -2 29.334 -3 44.001 -3c42 0 73 9.83301 93 29.5s30 55.5 30 107.5v469h128v-356h94v-104h-94v-4c0 -32 -3.66699 -62.833 -11 -92.5s-20.5 -55.834 -39.5 -78.501s-44.833 -40.834 -77.5 -54.501
s-74.334 -20.5 -125.001 -20.5zM197 534.002c-20 0 -37.167 7.16699 -51.5 21.5s-21.5 31.5 -21.5 51.5c0 19.333 7.16699 36.166 21.5 50.499s31.5 21.5 51.5 21.5s37 -7.16699 51 -21.5s21 -31.166 21 -50.499c0 -20 -7 -37.167 -21 -51.5s-31 -21.5 -51 -21.5z" />
    <glyph glyph-name="uniFEB2" unicode="&#x633;" horiz-adv-x="1156" arabic-form="final" 
d="M897 0c-40.667 0 -73.1689 5.83301 -97.502 17.5s-42.833 29.834 -55.5 54.501c-16.667 -26.667 -36 -47 -58 -61s-49.333 -21 -82 -21c-7.33301 0 -15.333 1.16699 -24 3.5s-15.667 5.16602 -21 8.49902h-1c-4.66699 -45.333 -13.834 -83.833 -27.501 -115.5
s-31.5 -57.5 -53.5 -77.5s-48.167 -34.5 -78.5 -43.5s-64.833 -13.5 -103.5 -13.5c-45.333 0 -84.166 7.83301 -116.499 23.5s-58.666 37.5 -78.999 65.5s-35.333 60.833 -45 98.5s-14.5 78.5 -14.5 122.5c0 24.667 2.33301 52.834 7 84.501s11.334 61.5 20.001 89.5l135 25
c-11.333 -34 -19.833 -65 -25.5 -93s-8.5 -55.667 -8.5 -83c0 -78.667 10.5 -136.5 31.5 -173.5s55.167 -55.5 102.5 -55.5c22 0 41.5 3.83301 58.5 11.5s31 20.5 42 38.5s19.333 41.667 25 71s8.5 66 8.5 110v373h128v-261c0 -36 6.66699 -62 20 -78s28.333 -24 45 -24
c28 0 48 11.667 60 35s18 56.333 18 99v229h126v-278c0 -52 23.667 -78 71 -78h61v150c0 48.667 -1.83301 92.5 -5.5 131.5s-8.16699 74.833 -13.5 107.5l129 17c5.33301 -30.667 9.5 -66.834 12.5 -108.501s4.5 -84.5 4.5 -128.5v-169h84v-104h-279v0z" />
    <glyph glyph-name="uniFEB3" unicode="&#x633;" horiz-adv-x="858" arabic-form="initial" 
d="M310 -10c-28 0 -54.5 6.49902 -79.5 19.499s-45.5 33.167 -61.5 60.5c-15.333 -28.667 -33.5 -47.5 -54.5 -56.5s-43.833 -13.5 -68.5 -13.5h-46v104h36c18 0 33.667 4.16699 47 12.5s24.333 19.666 33 33.999s15.167 31 19.5 50s6.5 39.167 6.5 60.5v199h128v-261
c0 -36 5.83301 -62 17.5 -78s28.167 -24 49.5 -24c29.333 0 49.333 12.833 60 38.5s16 67.5 16 125.5v199h126v-278c0 -52 23.667 -78 71 -78h61v152c0 48 -1.83301 91.333 -5.5 130s-8.16699 74.334 -13.5 107.001l129 17c5.33301 -30.667 9.5 -66.667 12.5 -108
s4.5 -84 4.5 -128v-274h-195c-40.667 0 -73.167 5.83301 -97.5 17.5s-42.833 29.834 -55.5 54.501c-16.667 -26.667 -36 -47 -58 -61s-49.333 -21 -82 -21z" />
    <glyph glyph-name="uniFEB4" unicode="&#x633;" horiz-adv-x="862" arabic-form="medial" 
d="M310 -10c-28 0 -54.5 6.49902 -79.5 19.499s-45.5 33.167 -61.5 60.5c-15.333 -28.667 -33.5 -47.5 -54.5 -56.5s-43.833 -13.5 -68.5 -13.5h-46v104h36c18 0 33.667 4.16699 47 12.5s24.333 19.666 33 33.999s15.167 31 19.5 50s6.5 39.167 6.5 60.5v199h128v-261
c0 -36 5.83301 -62 17.5 -78s28.167 -24 49.5 -24c29.333 0 49.333 12.833 60 38.5s16 67.5 16 125.5v199h126v-278c0 -52 23.667 -78 71 -78h61v152c0 48 -1.83301 91.333 -5.5 130s-8.16699 74.334 -13.5 107.001l129 17c5.33301 -30.667 9.5 -66.667 12.5 -108
s4.5 -84 4.5 -128v-170h84v-104h-279c-40.667 0 -73.167 5.83301 -97.5 17.5s-42.833 29.834 -55.5 54.501c-16.667 -26.667 -36 -47 -58 -61s-49.333 -21 -82 -21z" />
    <glyph glyph-name="uniFEB6" unicode="&#x634;" horiz-adv-x="1156" arabic-form="final" 
d="M897 0c-40.667 0 -73.1689 5.83301 -97.502 17.5s-42.833 29.834 -55.5 54.501c-16.667 -26.667 -36 -47 -58 -61s-49.333 -21 -82 -21c-7.33301 0 -15.333 1.16699 -24 3.5s-15.667 5.16602 -21 8.49902h-1c-4.66699 -45.333 -13.834 -83.833 -27.501 -115.5
s-31.5 -57.5 -53.5 -77.5s-48.167 -34.5 -78.5 -43.5s-64.833 -13.5 -103.5 -13.5c-45.333 0 -84.166 7.83301 -116.499 23.5s-58.666 37.5 -78.999 65.5s-35.333 60.833 -45 98.5s-14.5 78.5 -14.5 122.5c0 24.667 2.33301 52.834 7 84.501s11.334 61.5 20.001 89.5l135 25
c-11.333 -34 -19.833 -65 -25.5 -93s-8.5 -55.667 -8.5 -83c0 -78.667 10.5 -136.5 31.5 -173.5s55.167 -55.5 102.5 -55.5c22 0 41.5 3.83301 58.5 11.5s31 20.5 42 38.5s19.333 41.667 25 71s8.5 66 8.5 110v373h128v-261c0 -36 6.66699 -62 20 -78s28.333 -24 45 -24
c28 0 48 11.667 60 35s18 56.333 18 99v229h126v-278c0 -52 23.667 -78 71 -78h61v150c0 48.667 -1.83301 92.5 -5.5 131.5s-8.16699 74.833 -13.5 107.5l129 17c5.33301 -30.667 9.5 -66.834 12.5 -108.501s4.5 -84.5 4.5 -128.5v-169h84v-104h-279v0zM853.998 533
c-18 0 -33 6.5 -45 19.5s-18 28.5 -18 46.5c0 17.333 6 32.5 18 45.5s27 19.5 45 19.5s32.833 -6.5 44.5 -19.5s17.5 -28.167 17.5 -45.5c0 -18 -5.83301 -33.5 -17.5 -46.5s-26.5 -19.5 -44.5 -19.5zM706.998 533c-18 0 -33 6.5 -45 19.5s-18 28.5 -18 46.5
c0 17.333 6 32.5 18 45.5s27 19.5 45 19.5s32.833 -6.5 44.5 -19.5s17.5 -28.167 17.5 -45.5c0 -18 -5.83301 -33.5 -17.5 -46.5s-26.5 -19.5 -44.5 -19.5zM778.998 663c-16.667 0 -30.5 6.16699 -41.5 18.5s-16.5 26.166 -16.5 41.499c0 16.667 5.5 30.834 16.5 42.501
s24.833 17.5 41.5 17.5s30.5 -5.83301 41.5 -17.5s16.5 -25.834 16.5 -42.501c0 -15.333 -5.5 -29.166 -16.5 -41.499s-24.833 -18.5 -41.5 -18.5z" />
    <glyph glyph-name="uniFEB7" unicode="&#x634;" horiz-adv-x="858" arabic-form="initial" 
d="M310 -10c-28 0 -54.5 6.49902 -79.5 19.499s-45.5 33.167 -61.5 60.5c-15.333 -28.667 -33.5 -47.5 -54.5 -56.5s-43.833 -13.5 -68.5 -13.5h-46v104h36c18 0 33.667 4.16699 47 12.5s24.333 19.666 33 33.999s15.167 31 19.5 50s6.5 39.167 6.5 60.5v199h128v-261
c0 -36 5.83301 -62 17.5 -78s28.167 -24 49.5 -24c29.333 0 49.333 12.833 60 38.5s16 67.5 16 125.5v199h126v-278c0 -52 23.667 -78 71 -78h61v152c0 48 -1.83301 91.333 -5.5 130s-8.16699 74.334 -13.5 107.001l129 17c5.33301 -30.667 9.5 -66.667 12.5 -108
s4.5 -84 4.5 -128v-274h-195c-40.667 0 -73.167 5.83301 -97.5 17.5s-42.833 29.834 -55.5 54.501c-16.667 -26.667 -36 -47 -58 -61s-49.333 -21 -82 -21zM495 662.999c-16.667 0 -30.5 6.16699 -41.5 18.5s-16.5 26.166 -16.5 41.499c0 16.667 5.5 30.834 16.5 42.501
s24.833 17.5 41.5 17.5s30.5 -5.83301 41.5 -17.5s16.5 -25.834 16.5 -42.501c0 -15.333 -5.5 -29.166 -16.5 -41.499s-24.833 -18.5 -41.5 -18.5zM423 532.999c-18 0 -33 6.5 -45 19.5s-18 28.5 -18 46.5c0 17.333 6 32.5 18 45.5s27 19.5 45 19.5s32.833 -6.5 44.5 -19.5
s17.5 -28.167 17.5 -45.5c0 -18 -5.83301 -33.5 -17.5 -46.5s-26.5 -19.5 -44.5 -19.5zM570 532.999c-18 0 -33 6.5 -45 19.5s-18 28.5 -18 46.5c0 17.333 6 32.5 18 45.5s27 19.5 45 19.5s32.833 -6.5 44.5 -19.5s17.5 -28.167 17.5 -45.5
c0 -18 -5.83301 -33.5 -17.5 -46.5s-26.5 -19.5 -44.5 -19.5z" />
    <glyph glyph-name="uniFEB8" unicode="&#x634;" horiz-adv-x="862" arabic-form="medial" 
d="M310 -10c-28 0 -54.5 6.49902 -79.5 19.499s-45.5 33.167 -61.5 60.5c-15.333 -28.667 -33.5 -47.5 -54.5 -56.5s-43.833 -13.5 -68.5 -13.5h-46v104h36c18 0 33.667 4.16699 47 12.5s24.333 19.666 33 33.999s15.167 31 19.5 50s6.5 39.167 6.5 60.5v199h128v-261
c0 -36 5.83301 -62 17.5 -78s28.167 -24 49.5 -24c29.333 0 49.333 12.833 60 38.5s16 67.5 16 125.5v199h126v-278c0 -52 23.667 -78 71 -78h61v152c0 48 -1.83301 91.333 -5.5 130s-8.16699 74.334 -13.5 107.001l129 17c5.33301 -30.667 9.5 -66.667 12.5 -108
s4.5 -84 4.5 -128v-170h84v-104h-279c-40.667 0 -73.167 5.83301 -97.5 17.5s-42.833 29.834 -55.5 54.501c-16.667 -26.667 -36 -47 -58 -61s-49.333 -21 -82 -21zM568 532.999c-18 0 -33 6.5 -45 19.5s-18 28.5 -18 46.5c0 17.333 6 32.5 18 45.5s27 19.5 45 19.5
s32.833 -6.5 44.5 -19.5s17.5 -28.167 17.5 -45.5c0 -18 -5.83301 -33.5 -17.5 -46.5s-26.5 -19.5 -44.5 -19.5zM421 532.999c-18 0 -33 6.5 -45 19.5s-18 28.5 -18 46.5c0 17.333 6 32.5 18 45.5s27 19.5 45 19.5s32.833 -6.5 44.5 -19.5s17.5 -28.167 17.5 -45.5
c0 -18 -5.83301 -33.5 -17.5 -46.5s-26.5 -19.5 -44.5 -19.5zM493 662.999c-16.667 0 -30.5 6.16699 -41.5 18.5s-16.5 26.166 -16.5 41.499c0 16.667 5.5 30.834 16.5 42.501s24.833 17.5 41.5 17.5s30.5 -5.83301 41.5 -17.5s16.5 -25.834 16.5 -42.501
c0 -15.333 -5.5 -29.166 -16.5 -41.499s-24.833 -18.5 -41.5 -18.5z" />
    <glyph glyph-name="uniFEBA" unicode="&#x635;" horiz-adv-x="1108" arabic-form="final" 
d="M558 0c-10.667 -90 -37.8359 -153.833 -81.5029 -191.5s-104.167 -56.5 -181.5 -56.5c-45.333 0 -84.166 7.83301 -116.499 23.5s-58.666 37.5 -78.999 65.5s-35.333 60.833 -45 98.5s-14.5 78.5 -14.5 122.5c0 24.667 2.33301 52.834 7 84.501s11.334 61.5 20.001 89.5
l135 25c-11.333 -34 -19.833 -65 -25.5 -93s-8.5 -55.667 -8.5 -83c0 -78.667 10.5 -136.5 31.5 -173.5s55.167 -55.5 102.5 -55.5c22 0 41.5 3.83301 58.5 11.5s31.167 20.167 42.5 37.5s19.833 40 25.5 68s8.5 62.667 8.5 104v383h128c0 -25.333 -0.333008 -47.5 -1 -66.5
s-1.66699 -36 -3 -51s-3 -28.667 -5 -41l-6 -35.5c11.333 21.333 26 44.166 44 68.499s39.167 47 63.5 68s51.333 38.333 81 52s61.5 20.5 95.5 20.5c62 0 111 -19 147 -57s54 -95 54 -171v-143h93v-104h-570v0zM898.998 104l-0.000976562 130.001
c0 47.333 -6.16699 81.666 -18.5 102.999s-34.166 32 -65.499 32c-23.333 0 -47 -6.33301 -71 -19s-47 -30.5 -69 -53.5s-42.667 -50.833 -62 -83.5s-36.333 -69 -51 -109h337z" />
    <glyph glyph-name="uniFEBB" unicode="&#x635;" horiz-adv-x="779" arabic-form="initial" 
d="M0 104l119.997 -0.000976562v356h128c0 -28 -0.5 -52.167 -1.5 -72.5s-2.16699 -38 -3.5 -53s-3 -28 -5 -39s-3.66699 -20.833 -5 -29.5c13.333 24.667 29.833 49.334 49.5 74.001s41.834 47 66.501 67s51.334 36.333 80.001 49s58.334 19 89.001 19
c62 0 111 -19 147 -57s54 -95 54 -171v-247h-719v104zM582.997 103.999v130.001c0 47.333 -6.16699 81.666 -18.5 102.999s-34.166 32 -65.499 32c-26 0 -51.167 -6.83301 -75.5 -20.5s-47.333 -32.334 -69 -56.001s-41.834 -51.667 -60.501 -84s-35 -67.166 -49 -104.499
h338z" />
    <glyph glyph-name="uniFEBC" unicode="&#x635;" horiz-adv-x="792" arabic-form="medial" 
d="M0 104l119.997 -0.000976562v356h128c0 -28 -0.5 -52.167 -1.5 -72.5s-2.16699 -38 -3.5 -53s-3 -28 -5 -39s-3.66699 -20.833 -5 -29.5c13.333 24.667 29.833 49.334 49.5 74.001s41.834 47 66.501 67s51.334 36.333 80.001 49s58.334 19 89.001 19
c62 0 111 -19 147 -57s54 -95 54 -171v-143h93v-104h-812v104zM582.997 103.999v130.001c0 47.333 -6.16699 81.666 -18.5 102.999s-34.166 32 -65.499 32c-26 0 -51.167 -6.83301 -75.5 -20.5s-47.333 -32.334 -69 -56.001s-41.834 -51.667 -60.501 -84
s-35 -67.166 -49 -104.499h338z" />
    <glyph glyph-name="uniFEBE" unicode="&#x636;" horiz-adv-x="1108" arabic-form="final" 
d="M558 0c-10.667 -90 -37.8359 -153.833 -81.5029 -191.5s-104.167 -56.5 -181.5 -56.5c-45.333 0 -84.166 7.83301 -116.499 23.5s-58.666 37.5 -78.999 65.5s-35.333 60.833 -45 98.5s-14.5 78.5 -14.5 122.5c0 24.667 2.33301 52.834 7 84.501s11.334 61.5 20.001 89.5
l135 25c-11.333 -34 -19.833 -65 -25.5 -93s-8.5 -55.667 -8.5 -83c0 -78.667 10.5 -136.5 31.5 -173.5s55.167 -55.5 102.5 -55.5c22 0 41.5 3.83301 58.5 11.5s31.167 20.167 42.5 37.5s19.833 40 25.5 68s8.5 62.667 8.5 104v383h128c0 -25.333 -0.333008 -47.5 -1 -66.5
s-1.66699 -36 -3 -51s-3 -28.667 -5 -41l-6 -35.5c11.333 21.333 26 44.166 44 68.499s39.167 47 63.5 68s51.333 38.333 81 52s61.5 20.5 95.5 20.5c62 0 111 -19 147 -57s54 -95 54 -171v-143h93v-104h-570v0zM898.998 104l-0.000976562 130.001
c0 47.333 -6.16699 81.666 -18.5 102.999s-34.166 32 -65.499 32c-23.333 0 -47 -6.33301 -71 -19s-47 -30.5 -69 -53.5s-42.667 -50.833 -62 -83.5s-36.333 -69 -51 -109h337zM763.997 541.001c-20 0 -37.167 7.16699 -51.5 21.5s-21.5 31.5 -21.5 51.5
c0 19.333 7.16699 36.166 21.5 50.499s31.5 21.5 51.5 21.5s37 -7.16699 51 -21.5s21 -31.166 21 -50.499c0 -20 -7 -37.167 -21 -51.5s-31 -21.5 -51 -21.5z" />
    <glyph glyph-name="uniFEBF" unicode="&#x636;" horiz-adv-x="779" arabic-form="initial" 
d="M0 104l119.997 -0.000976562v356h128c0 -28 -0.5 -52.167 -1.5 -72.5s-2.16699 -38 -3.5 -53s-3 -28 -5 -39s-3.66699 -20.833 -5 -29.5c13.333 24.667 29.833 49.334 49.5 74.001s41.834 47 66.501 67s51.334 36.333 80.001 49s58.334 19 89.001 19
c62 0 111 -19 147 -57s54 -95 54 -171v-247h-719v104zM582.997 103.999v130.001c0 47.333 -6.16699 81.666 -18.5 102.999s-34.166 32 -65.499 32c-26 0 -51.167 -6.83301 -75.5 -20.5s-47.333 -32.334 -69 -56.001s-41.834 -51.667 -60.501 -84s-35 -67.166 -49 -104.499
h338zM437.997 541c-20 0 -37.167 7.16699 -51.5 21.5s-21.5 31.5 -21.5 51.5c0 19.333 7.16699 36.166 21.5 50.499s31.5 21.5 51.5 21.5s37 -7.16699 51 -21.5s21 -31.166 21 -50.499c0 -20 -7 -37.167 -21 -51.5s-31 -21.5 -51 -21.5z" />
    <glyph glyph-name="uniFEC0" unicode="&#x636;" horiz-adv-x="792" arabic-form="medial" 
d="M0 104l119.997 -0.000976562v356h128c0 -28 -0.5 -52.167 -1.5 -72.5s-2.16699 -38 -3.5 -53s-3 -28 -5 -39s-3.66699 -20.833 -5 -29.5c13.333 24.667 29.833 49.334 49.5 74.001s41.834 47 66.501 67s51.334 36.333 80.001 49s58.334 19 89.001 19
c62 0 111 -19 147 -57s54 -95 54 -171v-143h93v-104h-812v104zM582.997 103.999v130.001c0 47.333 -6.16699 81.666 -18.5 102.999s-34.166 32 -65.499 32c-26 0 -51.167 -6.83301 -75.5 -20.5s-47.333 -32.334 -69 -56.001s-41.834 -51.667 -60.501 -84
s-35 -67.166 -49 -104.499h338zM430.997 541c-20 0 -37.167 7.16699 -51.5 21.5s-21.5 31.5 -21.5 51.5c0 19.333 7.16699 36.166 21.5 50.499s31.5 21.5 51.5 21.5s37 -7.16699 51 -21.5s21 -31.166 21 -50.499c0 -20 -7 -37.167 -21 -51.5s-31 -21.5 -51 -21.5z" />
    <glyph glyph-name="uniFEC2" unicode="&#x637;" horiz-adv-x="800" arabic-form="final" 
d="M0 104l129.001 0.00195312v619h128v-308c0 -26.667 -1.33301 -52.334 -4 -77.001s-6.33398 -48.334 -11.001 -71.001h1c11.333 22 26.166 45.167 44.499 69.5s39.666 46.833 63.999 67.5s51.333 37.667 81 51s60.834 20 93.501 20c62.667 0 111.834 -19 147.501 -57
s53.5 -95 53.5 -171v-143h93v-104h-820v104zM591.001 104.002l-0.00195312 130.002c0 47.333 -6.16699 81.666 -18.5 102.999s-34.166 32 -65.499 32c-27.333 0 -53.666 -7.5 -78.999 -22.5s-49 -34.833 -71 -59.5s-41.667 -52.834 -59 -84.501s-32 -64.5 -44 -98.5h337z
" />
    <glyph glyph-name="uniFEC3" unicode="&#x637;" horiz-adv-x="787" arabic-form="initial" 
d="M0 104l129.001 0.00195312v619h128v-308c0 -26.667 -1.33301 -52.334 -4 -77.001s-6.33398 -48.334 -11.001 -71.001h1c11.333 22 26.166 45.167 44.499 69.5s39.666 46.833 63.999 67.5s51.333 37.667 81 51s60.834 20 93.501 20c62.667 0 111.834 -19 147.501 -57
s53.5 -95 53.5 -171v-247h-727v104zM591.001 104.002l-0.00195312 130.002c0 47.333 -6.16699 81.666 -18.5 102.999s-34.166 32 -65.499 32c-27.333 0 -53.666 -7.5 -78.999 -22.5s-49 -34.833 -71 -59.5s-41.667 -52.834 -59 -84.501s-32 -64.5 -44 -98.5h337z" />
    <glyph glyph-name="uniFEC4" unicode="&#x637;" horiz-adv-x="800" arabic-form="medial" 
d="M0 104l129.001 0.00195312v619h128v-308c0 -26.667 -1.33301 -52.334 -4 -77.001s-6.33398 -48.334 -11.001 -71.001h1c11.333 22 26.166 45.167 44.499 69.5s39.666 46.833 63.999 67.5s51.333 37.667 81 51s60.834 20 93.501 20c62.667 0 111.834 -19 147.501 -57
s53.5 -95 53.5 -171v-143h93v-104h-820v104zM591.001 104.002l-0.00195312 130.002c0 47.333 -6.16699 81.666 -18.5 102.999s-34.166 32 -65.499 32c-27.333 0 -53.666 -7.5 -78.999 -22.5s-49 -34.833 -71 -59.5s-41.667 -52.834 -59 -84.501s-32 -64.5 -44 -98.5h337z
" />
    <glyph glyph-name="uniFEC6" unicode="&#x638;" horiz-adv-x="800" arabic-form="final" 
d="M0 104l129.001 0.00195312v619h128v-308c0 -26.667 -1.33301 -52.334 -4 -77.001s-6.33398 -48.334 -11.001 -71.001h1c11.333 22 26.166 45.167 44.499 69.5s39.666 46.833 63.999 67.5s51.333 37.667 81 51s60.834 20 93.501 20c62.667 0 111.834 -19 147.501 -57
s53.5 -95 53.5 -171v-143h93v-104h-820v104zM591.001 104.002l-0.00195312 130.002c0 47.333 -6.16699 81.666 -18.5 102.999s-34.166 32 -65.499 32c-27.333 0 -53.666 -7.5 -78.999 -22.5s-49 -34.833 -71 -59.5s-41.667 -52.834 -59 -84.501s-32 -64.5 -44 -98.5h337z
M394.999 542.004c-20 0 -37.167 7.16699 -51.5 21.5s-21.5 31.5 -21.5 51.5c0 19.333 7.16699 36.166 21.5 50.499s31.5 21.5 51.5 21.5s37 -7.16699 51 -21.5s21 -31.166 21 -50.499c0 -20 -7 -37.167 -21 -51.5s-31 -21.5 -51 -21.5z" />
    <glyph glyph-name="uniFEC7" unicode="&#x638;" horiz-adv-x="787" arabic-form="initial" 
d="M0 104l129.001 0.00195312v619h128v-308c0 -26.667 -1.33301 -52.334 -4 -77.001s-6.33398 -48.334 -11.001 -71.001h1c11.333 22 26.166 45.167 44.499 69.5s39.666 46.833 63.999 67.5s51.333 37.667 81 51s60.834 20 93.501 20c62.667 0 111.834 -19 147.501 -57
s53.5 -95 53.5 -171v-247h-727v104zM591.001 104.002l-0.00195312 130.002c0 47.333 -6.16699 81.666 -18.5 102.999s-34.166 32 -65.499 32c-27.333 0 -53.666 -7.5 -78.999 -22.5s-49 -34.833 -71 -59.5s-41.667 -52.834 -59 -84.501s-32 -64.5 -44 -98.5h337z
M391.999 543.004c-20 0 -37.167 7.16699 -51.5 21.5s-21.5 31.5 -21.5 51.5c0 19.333 7.16699 36.166 21.5 50.499s31.5 21.5 51.5 21.5s37 -7.16699 51 -21.5s21 -31.166 21 -50.499c0 -20 -7 -37.167 -21 -51.5s-31 -21.5 -51 -21.5z" />
    <glyph glyph-name="uniFEC8" unicode="&#x638;" horiz-adv-x="800" arabic-form="medial" 
d="M0 104l129.001 0.00195312v619h128v-308c0 -26.667 -1.33301 -52.334 -4 -77.001s-6.33398 -48.334 -11.001 -71.001h1c11.333 22 26.166 45.167 44.499 69.5s39.666 46.833 63.999 67.5s51.333 37.667 81 51s60.834 20 93.501 20c62.667 0 111.834 -19 147.501 -57
s53.5 -95 53.5 -171v-143h93v-104h-820v104zM591.001 104.002l-0.00195312 130.002c0 47.333 -6.16699 81.666 -18.5 102.999s-34.166 32 -65.499 32c-27.333 0 -53.666 -7.5 -78.999 -22.5s-49 -34.833 -71 -59.5s-41.667 -52.834 -59 -84.501s-32 -64.5 -44 -98.5h337z
M392.999 542.004c-20 0 -37.167 7.16699 -51.5 21.5s-21.5 31.5 -21.5 51.5c0 19.333 7.16699 36.166 21.5 50.499s31.5 21.5 51.5 21.5s37 -7.16699 51 -21.5s21 -31.166 21 -50.499c0 -20 -7 -37.167 -21 -51.5s-31 -21.5 -51 -21.5z" />
    <glyph glyph-name="uniFECA" unicode="&#x639;" horiz-adv-x="585" arabic-form="final" 
d="M330 -249c-55.333 0 -101.671 4.33203 -139.004 12.999s-67.166 20.5 -89.499 35.5s-38.166 32.833 -47.499 53.5s-14 43 -14 67c0 26.667 6.5 50.667 19.5 72s30.167 40.666 51.5 57.999s45.333 33.5 72 48.5l81 43.5c-29.333 30.667 -60 58.834 -92 84.501
s-68.667 45.167 -110 58.5l14 109c40 28 81.667 50.333 125 67s87.666 25 132.999 25c36 0 67.5 -4.5 94.5 -13.5s49.833 -21.5 68.5 -37.5s32.667 -35 42 -57s14 -45.667 14 -71c0 -30.667 -7.83301 -59 -23.5 -85s-39.5 -53.333 -71.5 -82l27.5 -14.5
c8.33301 -4.33301 16.833 -8.16602 25.5 -11.499s17.834 -5.83301 27.501 -7.5s20.834 -2.5 33.501 -2.5h33v-104h-38c-25.333 0 -48 2 -68 6s-38.5 9.5 -55.5 16.5s-33 15.333 -48 25s-29.833 20.5 -44.5 32.5l-67.5 -35c-21.667 -11.333 -40.667 -23 -57 -35
s-29.5 -24.5 -39.5 -37.5s-15 -26.833 -15 -41.5c0 -10 2.16699 -19.5 6.5 -28.5s12.5 -16.833 24.5 -23.5s28.833 -12 50.5 -16s49.834 -6 84.501 -6c16.667 0 31.5 0.333008 44.5 1s25.167 1.5 36.5 2.5s22.333 2.33301 33 4l34 5.5l-9 -105
c-21.333 -4 -44 -7.33301 -68 -10s-50.333 -4 -79 -4zM367.995 201.999c15.333 12.667 28.167 27.667 38.5 45s15.5 34.333 15.5 51c0 24 -8.5 43.5 -25.5 58.5s-40.5 22.5 -70.5 22.5c-25.333 0 -48.333 -4.16699 -69 -12.5s-40 -18.5 -58 -30.5
c19.333 -9.33301 36.5 -19 51.5 -29s29 -20.5 42 -31.5s25.5 -22.5 37.5 -34.5z" />
    <glyph glyph-name="uniFECB" unicode="&#x639;" horiz-adv-x="533" arabic-form="initial" 
d="M0 104l153 0.00195312c-21.333 20 -36.5 43.5 -45.5 70.5s-13.5 53.5 -13.5 79.5c0 32 6.66699 61.667 20 89s31.333 50.666 54 69.999s49.334 34.5 80.001 45.5s63.334 16.5 98.001 16.5c19.333 0 38.333 -1.5 57 -4.5s36 -7.16699 52 -12.5l-20 -110
c-13.333 5.33301 -27.5 10 -42.5 14s-32.167 6 -51.5 6c-16 0 -31.333 -2.83301 -46 -8.5s-27.834 -13.834 -39.501 -24.501s-20.834 -23.667 -27.501 -39s-10 -32.333 -10 -51c0 -17.333 2.83301 -34.5 8.5 -51.5s15.5 -32.167 29.5 -45.5s32.833 -24 56.5 -32
s53.167 -12 88.5 -12h102v-104h-503v104z" />
    <glyph glyph-name="uniFECC" unicode="&#x639;" horiz-adv-x="562" arabic-form="medial" 
d="M0 104l53 0.000976562c68.667 0 131.334 12.667 188.001 38l-42 41c-13.333 13.333 -27.5 26 -42.5 38s-31.833 23.333 -50.5 34s-41 20.667 -67 30l14 109c40 28 81.667 50.333 125 67s87.666 25 132.999 25c36.667 0 68.667 -4.66699 96 -14s50.166 -22 68.499 -38
s32 -34.833 41 -56.5s13.5 -45.167 13.5 -70.5c0 -29.333 -8.33301 -58 -25 -86s-40 -55 -70 -81c18.667 -10.667 36.334 -19.334 53.001 -26.001s37 -10 61 -10h33v-104h-38c-46 0 -86.5 6.16699 -121.5 18.5s-66.5 28.833 -94.5 49.5c-40 -21.333 -82.5 -38 -127.5 -50
s-89.833 -18 -134.5 -18h-66v104zM345 202.001c18 15.333 31.499 31.332 40.499 47.999s13.5 32.667 13.5 48c0 24.667 -8.66699 44.334 -26 59.001s-40.666 22 -69.999 22c-26 0 -49.167 -4.16699 -69.5 -12.5s-39.5 -18.5 -57.5 -30.5
c17.333 -6.66699 32.833 -14.5 46.5 -23.5s27 -19 40 -30s26 -23.167 39 -36.5z" />
    <glyph glyph-name="uniFECE" unicode="&#x63a;" horiz-adv-x="585" arabic-form="final" 
d="M330 -249c-55.333 0 -101.671 4.33203 -139.004 12.999s-67.166 20.5 -89.499 35.5s-38.166 32.833 -47.499 53.5s-14 43 -14 67c0 26.667 6.5 50.667 19.5 72s30.167 40.666 51.5 57.999s45.333 33.5 72 48.5l81 43.5c-29.333 30.667 -60 58.834 -92 84.501
s-68.667 45.167 -110 58.5l14 109c40 28 81.667 50.333 125 67s87.666 25 132.999 25c36 0 67.5 -4.5 94.5 -13.5s49.833 -21.5 68.5 -37.5s32.667 -35 42 -57s14 -45.667 14 -71c0 -30.667 -7.83301 -59 -23.5 -85s-39.5 -53.333 -71.5 -82l27.5 -14.5
c8.33301 -4.33301 16.833 -8.16602 25.5 -11.499s17.834 -5.83301 27.501 -7.5s20.834 -2.5 33.501 -2.5h33v-104h-38c-25.333 0 -48 2 -68 6s-38.5 9.5 -55.5 16.5s-33 15.333 -48 25s-29.833 20.5 -44.5 32.5l-67.5 -35c-21.667 -11.333 -40.667 -23 -57 -35
s-29.5 -24.5 -39.5 -37.5s-15 -26.833 -15 -41.5c0 -10 2.16699 -19.5 6.5 -28.5s12.5 -16.833 24.5 -23.5s28.833 -12 50.5 -16s49.834 -6 84.501 -6c16.667 0 31.5 0.333008 44.5 1s25.167 1.5 36.5 2.5s22.333 2.33301 33 4l34 5.5l-9 -105
c-21.333 -4 -44 -7.33301 -68 -10s-50.333 -4 -79 -4zM367.995 201.999c15.333 12.667 28.167 27.667 38.5 45s15.5 34.333 15.5 51c0 24 -8.5 43.5 -25.5 58.5s-40.5 22.5 -70.5 22.5c-25.333 0 -48.333 -4.16699 -69 -12.5s-40 -18.5 -58 -30.5
c19.333 -9.33301 36.5 -19 51.5 -29s29 -20.5 42 -31.5s25.5 -22.5 37.5 -34.5zM299.996 557.999c-20 0 -37.167 7.16699 -51.5 21.5s-21.5 31.5 -21.5 51.5c0 19.333 7.16699 36.166 21.5 50.499s31.5 21.5 51.5 21.5s37 -7.16699 51 -21.5s21 -31.166 21 -50.499
c0 -20 -7 -37.167 -21 -51.5s-31 -21.5 -51 -21.5z" />
    <glyph glyph-name="uniFECF" unicode="&#x63a;" horiz-adv-x="533" arabic-form="initial" 
d="M0 104l153 0.00195312c-21.333 20 -36.5 43.5 -45.5 70.5s-13.5 53.5 -13.5 79.5c0 32 6.66699 61.667 20 89s31.333 50.666 54 69.999s49.334 34.5 80.001 45.5s63.334 16.5 98.001 16.5c19.333 0 38.333 -1.5 57 -4.5s36 -7.16699 52 -12.5l-20 -110
c-13.333 5.33301 -27.5 10 -42.5 14s-32.167 6 -51.5 6c-16 0 -31.333 -2.83301 -46 -8.5s-27.834 -13.834 -39.501 -24.501s-20.834 -23.667 -27.501 -39s-10 -32.333 -10 -51c0 -17.333 2.83301 -34.5 8.5 -51.5s15.5 -32.167 29.5 -45.5s32.833 -24 56.5 -32
s53.167 -12 88.5 -12h102v-104h-503v104zM287 542.002c-20 0 -37.167 7.16699 -51.5 21.5s-21.5 31.5 -21.5 51.5c0 19.333 7.16699 36.166 21.5 50.499s31.5 21.5 51.5 21.5s37 -7.16699 51 -21.5s21 -31.166 21 -50.499c0 -20 -7 -37.167 -21 -51.5s-31 -21.5 -51 -21.5z
" />
    <glyph glyph-name="uniFED0" unicode="&#x63a;" horiz-adv-x="562" arabic-form="medial" 
d="M0 104l53 0.000976562c68.667 0 131.334 12.667 188.001 38l-42 41c-13.333 13.333 -27.5 26 -42.5 38s-31.833 23.333 -50.5 34s-41 20.667 -67 30l14 109c40 28 81.667 50.333 125 67s87.666 25 132.999 25c36.667 0 68.667 -4.66699 96 -14s50.166 -22 68.499 -38
s32 -34.833 41 -56.5s13.5 -45.167 13.5 -70.5c0 -29.333 -8.33301 -58 -25 -86s-40 -55 -70 -81c18.667 -10.667 36.334 -19.334 53.001 -26.001s37 -10 61 -10h33v-104h-38c-46 0 -86.5 6.16699 -121.5 18.5s-66.5 28.833 -94.5 49.5c-40 -21.333 -82.5 -38 -127.5 -50
s-89.833 -18 -134.5 -18h-66v104zM345 202.001c18 15.333 31.499 31.332 40.499 47.999s13.5 32.667 13.5 48c0 24.667 -8.66699 44.334 -26 59.001s-40.666 22 -69.999 22c-26 0 -49.167 -4.16699 -69.5 -12.5s-39.5 -18.5 -57.5 -30.5
c17.333 -6.66699 32.833 -14.5 46.5 -23.5s27 -19 40 -30s26 -23.167 39 -36.5zM279.999 557c-20 0 -37.167 7.16699 -51.5 21.5s-21.5 31.5 -21.5 51.5c0 19.333 7.16699 36.166 21.5 50.499s31.5 21.5 51.5 21.5s37 -7.16699 51 -21.5s21 -31.166 21 -50.499
c0 -20 -7 -37.167 -21 -51.5s-31 -21.5 -51 -21.5z" />
    <glyph glyph-name="uniFED2" unicode="&#x641;" horiz-adv-x="884" arabic-form="final" 
d="M391 0c-70.667 0 -128.668 8.00195 -174.001 24.002s-81.166 38 -107.499 66s-44.5 61.167 -54.5 99.5s-15 79.833 -15 124.5c0 17.333 2 38 6 62s8.33301 44.667 13 62l135 25c-9.33301 -27.333 -16 -50.833 -20 -70.5s-6 -43.167 -6 -70.5
c0 -34.667 3.5 -65.5 10.5 -92.5s20.333 -49.833 40 -68.5s47.167 -32.834 82.5 -42.501s81 -14.5 137 -14.5c-9.33301 11.333 -17.833 28.666 -25.5 51.999s-11.5 51.333 -11.5 84c0 30 5.33301 59 16 87s26.167 53 46.5 75s45.5 39.667 75.5 53s64 20 102 20
c32 0 61.5 -5.33301 88.5 -16s50.333 -26.167 70 -46.5s35 -44.833 46 -73.5s16.5 -61 16.5 -97c0 -33.333 -4.83301 -61.833 -14.5 -85.5s-18.5 -41.167 -26.5 -52.5h83v-104h-513v0zM626.999 103.002c17.333 0 32.499 3.83301 45.499 11.5s24 18 33 31
s15.667 27.833 20 44.5s6.5 34 6.5 52c0 15.333 -2 30.5 -6 45.5s-10.167 28.333 -18.5 40s-18.666 21.167 -30.999 28.5s-27.166 11 -44.499 11c-16.667 0 -31.334 -3.5 -44.001 -10.5s-23.167 -16.5 -31.5 -28.5s-14.5 -26 -18.5 -42s-6 -33.333 -6 -52
c0 -38 8.33301 -69.333 25 -94s40 -37 70 -37zM629.998 546.002c-20 0 -37.167 7.16699 -51.5 21.5s-21.5 31.5 -21.5 51.5c0 19.333 7.16699 36.166 21.5 50.499s31.5 21.5 51.5 21.5s37 -7.16699 51 -21.5s21 -31.166 21 -50.499c0 -20 -7 -37.167 -21 -51.5
s-31 -21.5 -51 -21.5z" />
    <glyph glyph-name="uniFED3" unicode="&#x641;" horiz-adv-x="612" arabic-form="initial" 
d="M0 104l137.002 0.000976562c-10.667 14 -19.334 32.167 -26.001 54.5s-10 49.5 -10 81.5c0 28.667 5.16699 57 15.5 85s25.666 53.167 45.999 75.5s45.5 40.333 75.5 54s64.333 20.5 103 20.5c34.667 0 65.667 -5.83301 93 -17.5s50.5 -27.834 69.5 -48.501
s33.5 -45.167 43.5 -73.5s15 -59.5 15 -93.5c0 -36 -6.33301 -69 -19 -99s-30.334 -55.5 -53.001 -76.5s-49.667 -37.333 -81 -49s-65.666 -17.5 -102.999 -17.5h-306v104zM327.002 103.001c18 0 33.6699 4 47.0029 12s24.166 18.5 32.499 31.5s14.666 27.833 18.999 44.5
s6.5 33.667 6.5 51c0 34.667 -8.83301 64.167 -26.5 88.5s-42.167 36.5 -73.5 36.5c-18.667 0 -34.334 -4 -47.001 -12s-23 -18.167 -31 -30.5s-13.667 -26.5 -17 -42.5s-5 -32 -5 -48c0 -17.333 2 -34 6 -50s9.83301 -30 17.5 -42s17.5 -21.5 29.5 -28.5s26 -10.5 42 -10.5
zM334.005 546.001c-20 0 -37.167 7.16699 -51.5 21.5s-21.5 31.5 -21.5 51.5c0 19.333 7.16699 36.166 21.5 50.499s31.5 21.5 51.5 21.5s37 -7.16699 51 -21.5s21 -31.166 21 -50.499c0 -20 -7 -37.167 -21 -51.5s-31 -21.5 -51 -21.5z" />
    <glyph glyph-name="uniFED4" unicode="&#x641;" horiz-adv-x="604" arabic-form="medial" 
d="M318 545c-20 0 -37.167 7.16699 -51.5 21.5s-21.5 31.5 -21.5 51.5c0 19.333 7.16699 36.166 21.5 50.499s31.5 21.5 51.5 21.5s37 -7.16699 51 -21.5s21 -31.166 21 -50.499c0 -20 -7 -37.167 -21 -51.5s-31 -21.5 -51 -21.5zM0 104l138.998 0.000976562
c-12 17.333 -21.333 37.166 -28 59.499s-10 47.833 -10 76.5c0 29.333 5.33301 58.166 16 86.499s26.334 53.5 47.001 75.5s45.834 39.667 75.501 53s63.5 20 101.5 20c28 0 55.333 -4.66699 82 -14s50.167 -23.5 70.5 -42.5s36.833 -43.167 49.5 -72.5s19 -64 19 -104
c0 -32 -5.16699 -60.167 -15.5 -84.5s-19.5 -42.166 -27.5 -53.499h105v-104h-624v104zM326.998 103.001c18 0 33.6699 4.16602 47.0029 12.499s24.166 19 32.499 32s14.666 27.833 18.999 44.5s6.5 33.334 6.5 50.001c0 38 -9.16699 68.333 -27.5 91s-42.5 34 -72.5 34
c-18.667 0 -34.334 -3.83301 -47.001 -11.5s-23 -17.667 -31 -30s-13.667 -26.5 -17 -42.5s-5 -32.333 -5 -49s1.83301 -32.834 5.5 -48.501s9.5 -29.667 17.5 -42s18 -22.166 30 -29.499s26 -11 42 -11z" />
    <glyph glyph-name="uniFED6" unicode="&#x642;" horiz-adv-x="831" arabic-form="final" 
d="M420 -249c-68 0 -126 6.83203 -174 20.499s-87.333 33.334 -118 59.001s-53 57.167 -67 94.5s-21 79.666 -21 126.999c0 10.667 0.833008 23.834 2.5 39.501s3.66699 31.834 6 48.501s5.33301 33 9 49s7.5 30 11.5 42l135 25c-5.33301 -12.667 -10.333 -27.5 -15 -44.5
s-8.5 -34.5 -11.5 -52.5s-5.33301 -35.667 -7 -53s-2.5 -32.666 -2.5 -45.999c0 -71.333 23 -122.833 69 -154.5s111.667 -47.5 197 -47.5c26 0 56.333 0.666992 91 2s69.667 3 105 5v135h-59c-82 0 -142.833 19.5 -182.5 58.5s-59.5 93.833 -59.5 164.5
c0 33.333 5.16699 65.166 15.5 95.499s26 57 47 80s47.5 41.5 79.5 55.5s70 21 114 21c30 0 59.333 -1.33301 88 -4s56.667 -6.33398 84 -11.001v-356h94v-104h-94v-235c-64.667 -5.33301 -126 -9 -184 -11s-109 -3 -153 -3zM630 103.999l0.000976562 261.999
c-10.667 2.66699 -21 4.5 -31 5.5s-18.667 1.5 -26 1.5c-14.667 0 -28.834 -2.66699 -42.501 -8s-25.667 -13.333 -36 -24s-18.5 -24.167 -24.5 -40.5s-9 -35.5 -9 -57.5c0 -19.333 2.16699 -37.5 6.5 -54.5s11.333 -31.667 21 -44s22.167 -22.166 37.5 -29.499
s34.333 -11 57 -11h47zM503.001 544.998c-20 0 -36.667 7.16699 -50 21.5s-20 31.5 -20 51.5c0 19.333 6.66699 36.166 20 50.499s30 21.5 50 21.5s36.5 -7.16699 49.5 -21.5s19.5 -31.166 19.5 -50.499c0 -20 -6.5 -37.167 -19.5 -51.5s-29.5 -21.5 -49.5 -21.5z
M666.001 544.998c-20 0 -36.667 7.16699 -50 21.5s-20 31.5 -20 51.5c0 19.333 6.66699 36.166 20 50.499s30 21.5 50 21.5s36.5 -7.16699 49.5 -21.5s19.5 -31.166 19.5 -50.499c0 -20 -6.5 -37.167 -19.5 -51.5s-29.5 -21.5 -49.5 -21.5z" />
    <glyph glyph-name="uniFED7" unicode="&#x642;" horiz-adv-x="632" arabic-form="initial" 
d="M0 104l137.002 0.000976562c-10.667 14 -19.334 32.167 -26.001 54.5s-10 49.5 -10 81.5c0 28.667 5.16699 57 15.5 85s25.666 53.167 45.999 75.5s45.5 40.333 75.5 54s64.333 20.5 103 20.5c34.667 0 65.667 -5.83301 93 -17.5s50.5 -27.834 69.5 -48.501
s33.5 -45.167 43.5 -73.5s15 -59.5 15 -93.5c0 -36 -6.33301 -69 -19 -99s-30.334 -55.5 -53.001 -76.5s-49.667 -37.333 -81 -49s-65.666 -17.5 -102.999 -17.5h-306v104zM327.002 103.001c18 0 33.6699 4 47.0029 12s24.166 18.5 32.499 31.5s14.666 27.833 18.999 44.5
s6.5 33.667 6.5 51c0 34.667 -8.83301 64.167 -26.5 88.5s-42.167 36.5 -73.5 36.5c-18.667 0 -34.334 -4 -47.001 -12s-23 -18.167 -31 -30.5s-13.667 -26.5 -17 -42.5s-5 -32 -5 -48c0 -17.333 2 -34 6 -50s9.83301 -30 17.5 -42s17.5 -21.5 29.5 -28.5s26 -10.5 42 -10.5
zM251.005 545.001c-20 0 -36.667 7.16699 -50 21.5s-20 31.5 -20 51.5c0 19.333 6.66699 36.166 20 50.499s30 21.5 50 21.5s36.5 -7.16699 49.5 -21.5s19.5 -31.166 19.5 -50.499c0 -20 -6.5 -37.167 -19.5 -51.5s-29.5 -21.5 -49.5 -21.5zM414.005 545.001
c-20 0 -36.667 7.16699 -50 21.5s-20 31.5 -20 51.5c0 19.333 6.66699 36.166 20 50.499s30 21.5 50 21.5s36.5 -7.16699 49.5 -21.5s19.5 -31.166 19.5 -50.499c0 -20 -6.5 -37.167 -19.5 -51.5s-29.5 -21.5 -49.5 -21.5z" />
    <glyph glyph-name="uniFED8" unicode="&#x642;" horiz-adv-x="604" arabic-form="medial" 
d="M230 545c-20 0 -36.667 7.16699 -50 21.5s-20 31.5 -20 51.5c0 19.333 6.66699 36.166 20 50.499s30 21.5 50 21.5s36.5 -7.16699 49.5 -21.5s19.5 -31.166 19.5 -50.499c0 -20 -6.5 -37.167 -19.5 -51.5s-29.5 -21.5 -49.5 -21.5zM393 545
c-20 0 -36.667 7.16699 -50 21.5s-20 31.5 -20 51.5c0 19.333 6.66699 36.166 20 50.499s30 21.5 50 21.5s36.5 -7.16699 49.5 -21.5s19.5 -31.166 19.5 -50.499c0 -20 -6.5 -37.167 -19.5 -51.5s-29.5 -21.5 -49.5 -21.5zM0 104l138.998 0.000976562
c-12 17.333 -21.333 37.166 -28 59.499s-10 47.833 -10 76.5c0 29.333 5.33301 58.166 16 86.499s26.334 53.5 47.001 75.5s45.834 39.667 75.501 53s63.5 20 101.5 20c28 0 55.333 -4.66699 82 -14s50.167 -23.5 70.5 -42.5s36.833 -43.167 49.5 -72.5s19 -64 19 -104
c0 -32 -5.16699 -60.167 -15.5 -84.5s-19.5 -42.166 -27.5 -53.499h105v-104h-624v104zM326.998 103.001c18 0 33.6699 4.16602 47.0029 12.499s24.166 19 32.499 32s14.666 27.833 18.999 44.5s6.5 33.334 6.5 50.001c0 38 -9.16699 68.333 -27.5 91s-42.5 34 -72.5 34
c-18.667 0 -34.334 -3.83301 -47.001 -11.5s-23 -17.667 -31 -30s-13.667 -26.5 -17 -42.5s-5 -32.333 -5 -49s1.83301 -32.834 5.5 -48.501s9.5 -29.667 17.5 -42s18 -22.166 30 -29.499s26 -11 42 -11z" />
    <glyph glyph-name="uniFEDA" unicode="&#x643;" horiz-adv-x="827" arabic-form="final" 
d="M422 0c-75.333 0 -137.5 8.00098 -186.5 24.001s-88 37.667 -117 65s-49.333 59 -61 95s-17.5 73.667 -17.5 113c0 21.333 1.83301 44.833 5.5 70.5s8.16699 49.167 13.5 70.5l135 25c-9.33301 -24 -16 -48.167 -20 -72.5s-6 -50.5 -6 -78.5
c0 -32.667 4.33301 -61.834 13 -87.501s23.5 -47.5 44.5 -65.5s49 -31.667 84 -41s78.5 -14 130.5 -14h186v619h128v-619h93v-104h-425v0zM291 400.001c4 0 9.00098 -0.165039 15.001 -0.498047s12.5 -0.833008 19.5 -1.5s13.833 -1.5 20.5 -2.5
s12.334 -2.16699 17.001 -3.5c-6 5.33301 -10.167 12.166 -12.5 20.499s-3.5 17.5 -3.5 27.5c0 12 2.5 23.333 7.5 34s12.333 20.334 22 29.001s21.667 15.5 36 20.5s31.166 7.5 50.499 7.5c10 0 21.167 -1.33301 33.5 -4s23.5 -6.33398 33.5 -11.001l-22 -59
c-6 3.33301 -13.333 6.16602 -22 8.49902s-17.334 3.5 -26.001 3.5c-10 0 -18.5 -2.83301 -25.5 -8.5s-10.5 -13.167 -10.5 -22.5c0 -25.333 20.667 -38 62 -38h52v-74h-247v74z" />
    <glyph glyph-name="uniFEDB" unicode="&#x643;" horiz-adv-x="476" arabic-form="initial" 
d="M0 104h298.999c-0.666992 36 -7.16699 70.833 -19.5 104.5s-30.833 63.5 -55.5 89.5s-55.667 47.5 -93 64.5s-81.666 27.167 -132.999 30.5v91l225 126.5l223 126.5v-138l-63 -33l-59 -30.5l-64 -32.5l-76 -39c42.667 -14 79.167 -33 109.5 -57s55.333 -51.833 75 -83.5
s34 -66.667 43 -105s13.5 -79.5 13.5 -123.5v-95h-425v104z" />
    <glyph glyph-name="uniFEDC" unicode="&#x643;" horiz-adv-x="479" arabic-form="medial" 
d="M0 104h298.999c-0.666992 36 -7.16699 70.833 -19.5 104.5s-30.833 63.5 -55.5 89.5s-55.667 47.5 -93 64.5s-81.666 27.167 -132.999 30.5v91l225 126.5l223 126.5v-138l-63 -33l-59 -30.5l-64 -32.5l-76 -39c42 -14 78 -32.667 108 -56s54.833 -50.5 74.5 -81.5
s34.167 -65.167 43.5 -102.5s14.333 -77.333 15 -120h74v-104h-499v104z" />
    <glyph glyph-name="uniFEDE" unicode="&#x644;" horiz-adv-x="638" arabic-form="final" 
d="M295 -248c-45.333 0 -84.165 7.83105 -116.498 23.498s-58.666 37.334 -78.999 65.001s-35.333 60.334 -45 98.001s-14.5 78.834 -14.5 123.501c0 10.667 0.666992 23.5 2 38.5s3.16602 30.667 5.49902 47s5.16602 32.166 8.49902 47.499s7 29 11 41l135 25
c-10 -28 -18.167 -57.5 -24.5 -88.5s-9.5 -60.167 -9.5 -87.5c0 -73.333 10 -129.833 30 -169.5s54.667 -59.5 104 -59.5c28 0 50.833 6 68.5 18s31.167 28.333 40.5 49s15.666 45 18.999 73s5 58 5 90v637h128v-619h95v-104h-100c-4 -36.667 -11.333 -70.167 -22 -100.5
s-26.167 -56.5 -46.5 -78.5s-46.333 -39 -78 -51s-70.5 -18 -116.5 -18z" />
    <glyph glyph-name="uniFEDF" unicode="&#x644;" horiz-adv-x="345" arabic-form="initial" 
d="M0 104h137v619h128v-723h-265v104z" />
    <glyph glyph-name="uniFEE0" unicode="&#x644;" horiz-adv-x="339" arabic-form="medial" 
d="M0 104h137v619h128v-619h94v-104h-359v104z" />
    <glyph glyph-name="uniFEE2" unicode="&#x645;" horiz-adv-x="654" arabic-form="final" 
d="M8 -139c42 0 73.834 10.999 95.501 32.999s32.5 58.667 32.5 110v209c0 30.667 3.5 61.5 10.5 92.5s19.5 59 37.5 84s42.5 45.5 73.5 61.5s70.5 24 118.5 24c30 0 57.5 -5.16699 82.5 -15.5s46.5 -25.666 64.5 -45.999s32 -45.833 42 -76.5s15 -66.334 15 -107.001v-126
h94v-104h-288c-12.667 0 -26 1.16699 -40 3.5s-27.167 5.5 -39.5 9.5s-23.333 8.83301 -33 14.5s-16.834 11.834 -21.501 18.501c1.33301 -4.66699 2.66602 -9 3.99902 -13c1.33301 -3.33301 2.33301 -7 3 -11s1 -7.66699 1 -11c0 -48.667 -7.33301 -89.5 -22 -122.5
s-34 -59.5 -58 -79.5s-51.667 -34.5 -83 -43.5s-63.666 -13.5 -96.999 -13.5zM452.001 103.999l-0.00195312 144c0 16 -1.5 31.5 -4.5 46.5s-8 28.333 -15 40s-16.167 21 -27.5 28s-25.333 10.5 -42 10.5c-14 0 -26.833 -3.33301 -38.5 -10s-21.667 -15.5 -30 -26.5
s-14.666 -24 -18.999 -39s-6.5 -30.833 -6.5 -47.5c0 -55.333 10.333 -93.5 31 -114.5s54.334 -31.5 101.001 -31.5h51z" />
    <glyph glyph-name="uniFEE3" unicode="&#x645;" horiz-adv-x="610" arabic-form="initial" 
d="M0 104l39.999 0.00390625c12.667 0 23.834 3.33301 33.501 10s17.667 15.5 24 26.5s11.166 23.333 14.499 37s5 27.167 5 40.5c0 44 5.66699 82.167 17 114.5s27.5 59 48.5 80s46.167 36.667 75.5 47s62 15.5 98 15.5c33.333 0 62.666 -5.83301 87.999 -17.5
s46.5 -28.334 63.5 -50.001s30 -47.5 39 -77.5s13.5 -63.333 13.5 -100v-230h-196c-31.333 0 -58.666 2.66699 -81.999 8s-43.166 12.166 -59.499 20.499s-29.333 17.666 -39 27.999s-16.5 20.166 -20.5 29.499c-9.33301 -28 -25.333 -49.333 -48 -64s-54.667 -22 -96 -22
h-19v104zM431.999 104.004l0.000976562 144c0 42.667 -8.33301 74.167 -25 94.5s-38 30.5 -64 30.5c-26.667 0 -49 -11.5 -67 -34.5s-27 -52.5 -27 -88.5c0 -52.667 9.66699 -90.167 29 -112.5s53.666 -33.5 102.999 -33.5h51z" />
    <glyph glyph-name="uniFEE4" unicode="&#x645;" horiz-adv-x="634" arabic-form="medial" 
d="M364 0c-31.333 0 -58.667 2.6709 -82 8.00391s-43.166 12.166 -59.499 20.499s-29.333 17.666 -39 27.999s-16.5 20.166 -20.5 29.499c-9.33301 -28 -25.333 -49.333 -48 -64s-54.667 -22 -96 -22h-19v104h40c12.667 0 23.834 3.33301 33.501 10s17.667 15.5 24 26.5
s11.166 23.333 14.499 37s5 27.167 5 40.5c0 44 5.66699 82.167 17 114.5s27.5 59 48.5 80s46.167 36.667 75.5 47s62 15.5 98 15.5c33.333 0 62.666 -5.83301 87.999 -17.5s46.5 -28.334 63.5 -50.001s30 -47.5 39 -77.5s13.5 -63.333 13.5 -100v-126h94v-104h-290v0z
M431.999 104.004l0.000976562 144c0 42.667 -8.33301 74.167 -25 94.5s-38 30.5 -64 30.5c-26.667 0 -49 -11.5 -67 -34.5s-27 -52.5 -27 -88.5c0 -52.667 9.66699 -90.167 29 -112.5s53.666 -33.5 102.999 -33.5h51z" />
    <glyph glyph-name="uniFEE6" unicode="&#x646;" horiz-adv-x="637" arabic-form="final" 
d="M295 -248c-45.333 0 -84.168 7.83203 -116.501 23.499s-58.666 37.5 -78.999 65.5s-35.333 60.833 -45 98.5s-14.5 78.5 -14.5 122.5c0 24.667 2.33301 52.834 7 84.501s11.334 61.5 20.001 89.5l135 25c-11.333 -34 -19.833 -65 -25.5 -93s-8.5 -55.667 -8.5 -83
c0 -78.667 10.5 -136.5 31.5 -173.5s55.167 -55.5 102.5 -55.5c22 0 41.5 3.83301 58.5 11.5s31 20.5 42 38.5s19.333 41.667 25 71s8.5 66 8.5 110v373h127v-356h94v-104h-99c-10.667 -90 -37.834 -153.833 -81.501 -191.5s-104.167 -56.5 -181.5 -56.5zM304.998 301.999
c-20 0 -37.167 7.16699 -51.5 21.5s-21.5 31.5 -21.5 51.5c0 19.333 7.16699 36.166 21.5 50.499s31.5 21.5 51.5 21.5s37 -7.16699 51 -21.5s21 -31.166 21 -50.499c0 -20 -7 -37.167 -21 -51.5s-31 -21.5 -51 -21.5z" />
    <glyph glyph-name="uniFEE7" unicode="&#x646;" horiz-adv-x="327" arabic-form="initial" 
d="M0 104h140v356h127v-460h-267v104zM202 534c-20 0 -37.167 7.16699 -51.5 21.5s-21.5 31.5 -21.5 51.5c0 19.333 7.16699 36.166 21.5 50.499s31.5 21.5 51.5 21.5s37 -7.16699 51 -21.5s21 -31.166 21 -50.499c0 -20 -7 -37.167 -21 -51.5s-31 -21.5 -51 -21.5z" />
    <glyph glyph-name="uniFEE8" unicode="&#x646;" horiz-adv-x="331" arabic-form="medial" 
d="M0 104h140v356h127v-356h84v-104h-351v104zM203 534c-20 0 -37.167 7.16699 -51.5 21.5s-21.5 31.5 -21.5 51.5c0 19.333 7.16699 36.166 21.5 50.499s31.5 21.5 51.5 21.5s37 -7.16699 51 -21.5s21 -31.166 21 -50.499c0 -20 -7 -37.167 -21 -51.5s-31 -21.5 -51 -21.5z
" />
    <glyph glyph-name="uniFEEA" unicode="&#x647;" horiz-adv-x="540" arabic-form="final" 
d="M282 0c-83.333 0 -144.5 19.835 -183.5 59.502s-58.5 94.167 -58.5 163.5c0 32.667 5.16699 64.167 15.5 94.5s26 57.166 47 80.499s47.5 42 79.5 56s70 21 114 21c30 0 59.333 -1.33301 88 -4s56.667 -6.33398 84 -11.001v-356h92v-104h-278v0zM341 104.002v262.003
c-10.667 2.66699 -21 4.5 -31 5.5s-18.667 1.5 -26 1.5c-34.667 0 -62 -11.667 -82 -35s-30 -55 -30 -95c0 -18.667 2.16699 -36.334 6.5 -53.001s11.333 -31.334 21 -44.001s22.167 -22.834 37.5 -30.501s34.333 -11.5 57 -11.5h47z" />
    <glyph glyph-name="uniFEEB" unicode="&#x647;" horiz-adv-x="714" arabic-form="initial" 
d="M0 104l122.998 0.00195312c-3.33301 7.33301 -5.83301 16 -7.5 26s-2.5 19.667 -2.5 29c0 24 4.16699 46 12.5 66s20 37.167 35 51.5s33.333 25.666 55 33.999s45.5 12.5 71.5 12.5c62 0 106 -18.667 132 -56s39 -91.666 39 -162.999h79
c0 49.333 -4.16699 92.666 -12.5 129.999s-22 68.666 -41 93.999s-43.833 44.5 -74.5 57.5s-68.667 19.5 -114 19.5c-32 0 -64 -2.66699 -96 -8s-67.333 -13 -106 -23l7 107c31.333 9.33301 65.333 16.333 102 21s72.667 7 108 7c54 0 102.833 -7.5 146.5 -22.5
s80.834 -38.333 111.501 -70s54.334 -72.167 71.001 -121.5s25 -108.333 25 -177v-118h-664v104zM337.998 104.002v42.998c0 22 -4.66699 40.333 -14 55s-24 22 -44 22c-14 0 -25.5 -5.5 -34.5 -16.5s-13.5 -24.167 -13.5 -39.5c0 -6.66699 0.833008 -13.667 2.5 -21
s5 -14.166 10 -20.499s11.833 -11.666 20.5 -15.999s20 -6.5 34 -6.5h39z" />
    <glyph glyph-name="uniFEEC" unicode="&#x647;" horiz-adv-x="728" arabic-form="medial" 
d="M0 104l122.998 0.00195312c-3.33301 7.33301 -5.83301 16 -7.5 26s-2.5 19.667 -2.5 29c0 24 4.16699 46 12.5 66s20 37.167 35 51.5s33.333 25.666 55 33.999s45.5 12.5 71.5 12.5c62 0 106 -18.667 132 -56s39 -91.666 39 -162.999h79
c0 49.333 -4.16699 92.666 -12.5 129.999s-22 68.666 -41 93.999s-43.833 44.5 -74.5 57.5s-68.667 19.5 -114 19.5c-32 0 -64 -2.66699 -96 -8s-67.333 -13 -106 -23l7 107c31.333 9.33301 65.333 16.333 102 21s72.667 7 108 7c54 0 102.833 -7.5 146.5 -22.5
s80.834 -38.333 111.501 -70s54.334 -72.167 71.001 -121.5s25 -108.333 25 -177v-14h84v-104h-748v104zM337.998 104.002v42.998c0 22 -4.66699 40.333 -14 55s-24 22 -44 22c-14 0 -25.5 -5.5 -34.5 -16.5s-13.5 -24.167 -13.5 -39.5c0 -6.66699 0.833008 -13.667 2.5 -21
s5 -14.166 10 -20.499s11.833 -11.666 20.5 -15.999s20 -6.5 34 -6.5h39z" />
    <glyph glyph-name="uniFEEE" unicode="&#x648;" horiz-adv-x="549" arabic-form="final" 
d="M171 -249c-19.333 0 -40.834 1 -64.501 3s-43.5 4.33301 -59.5 7l-7 113c22.667 -5.33301 45.834 -9.33301 69.501 -12s47.167 -4 70.5 -4c55.333 0 96.833 12.667 124.5 38s42.167 60 43.5 104h-59c-45.333 -0 -83.333 5.83301 -114 17.5s-55.5 27.5 -74.5 47.5
s-32.667 43.667 -41 71s-12.5 56.333 -12.5 87c0 32 4.83301 63 14.5 93s25 56.833 46 80.5s47.667 42.667 80 57s70.833 21.5 115.5 21.5c30 0 59.333 -1.33301 88 -4s56.667 -6.33398 84 -11.001v-356h94v-104h-94c-0.666992 -29.333 -6.66699 -58.666 -18 -87.999
s-29 -56 -53 -80s-55 -43.5 -93 -58.5s-84.667 -22.5 -140 -22.5zM347.999 104v262c-10.667 2.66699 -21 4.5 -31 5.5s-18.667 1.5 -26 1.5c-33.333 0 -60.333 -11.5 -81 -34.5s-31 -54.833 -31 -95.5c0 -44 9.83301 -78.167 29.5 -102.5s50.5 -36.5 92.5 -36.5h47z" />
    <glyph glyph-name="uniFEF0" unicode="&#x649;" horiz-adv-x="1017" arabic-form="final" 
d="M816 242c0 46 -8.33301 78.502 -25 97.502s-46 28.5 -88 28.5c-7.33301 0 -14.333 -0.333008 -21 -1s-12.667 -1.33398 -18 -2.00098v-365h-242c-75.333 0 -137.5 8 -186.5 24s-88 37.667 -117 65s-49.333 59 -61 95s-17.5 73.667 -17.5 113
c0 21.333 1.83301 44.833 5.5 70.5s8.16699 49.167 13.5 70.5l135 25c-9.33301 -24 -16 -48.167 -20 -72.5s-6 -50.5 -6 -78.5c0 -32.667 4.33301 -61.834 13 -87.501s23.5 -47.5 44.5 -65.5s49 -31.667 84 -41s78.5 -14 130.5 -14h97v352c27.333 6 55 10.667 83 14
s57 5 87 5c46 0 84.167 -5.5 114.5 -16.5s54.5 -26.5 72.5 -46.5s30.667 -44.333 38 -73s11 -60.667 11 -96v-139h94v-104h-221v242z" />
    <glyph glyph-name="uniFEF2" unicode="&#x64a;" horiz-adv-x="1017" arabic-form="final" 
d="M816 242c0 46 -8.33301 78.502 -25 97.502s-46 28.5 -88 28.5c-7.33301 0 -14.333 -0.333008 -21 -1s-12.667 -1.33398 -18 -2.00098v-365h-242c-75.333 0 -137.5 8 -186.5 24s-88 37.667 -117 65s-49.333 59 -61 95s-17.5 73.667 -17.5 113
c0 21.333 1.83301 44.833 5.5 70.5s8.16699 49.167 13.5 70.5l135 25c-9.33301 -24 -16 -48.167 -20 -72.5s-6 -50.5 -6 -78.5c0 -32.667 4.33301 -61.834 13 -87.501s23.5 -47.5 44.5 -65.5s49 -31.667 84 -41s78.5 -14 130.5 -14h97v352c27.333 6 55 10.667 83 14
s57 5 87 5c46 0 84.167 -5.5 114.5 -16.5s54.5 -26.5 72.5 -46.5s30.667 -44.333 38 -73s11 -60.667 11 -96v-139h94v-104h-221v242zM312 -218.998c-20 0 -36.667 7.16699 -50 21.5s-20 31.5 -20 51.5c0 19.333 6.66699 36.166 20 50.499s30 21.5 50 21.5
s36.5 -7.16699 49.5 -21.5s19.5 -31.166 19.5 -50.499c0 -20 -6.5 -37.167 -19.5 -51.5s-29.5 -21.5 -49.5 -21.5zM475 -218.998c-20 0 -36.667 7.16699 -50 21.5s-20 31.5 -20 51.5c0 19.333 6.66699 36.166 20 50.499s30 21.5 50 21.5s36.5 -7.16699 49.5 -21.5
s19.5 -31.166 19.5 -50.499c0 -20 -6.5 -37.167 -19.5 -51.5s-29.5 -21.5 -49.5 -21.5z" />
    <glyph glyph-name="uniFEF3" unicode="&#x64a;" horiz-adv-x="327" arabic-form="initial" 
d="M0 104h140v356h127v-460h-267v104zM31 -219c-20 0 -36.667 7.16699 -50 21.5s-20 31.5 -20 51.5c0 19.333 6.66699 36.166 20 50.499s30 21.5 50 21.5s36.5 -7.16699 49.5 -21.5s19.5 -31.166 19.5 -50.499c0 -20 -6.5 -37.167 -19.5 -51.5s-29.5 -21.5 -49.5 -21.5z
M194 -219c-20 0 -36.667 7.16699 -50 21.5s-20 31.5 -20 51.5c0 19.333 6.66699 36.166 20 50.499s30 21.5 50 21.5s36.5 -7.16699 49.5 -21.5s19.5 -31.166 19.5 -50.499c0 -20 -6.5 -37.167 -19.5 -51.5s-29.5 -21.5 -49.5 -21.5z" />
    <glyph glyph-name="uniFEF4" unicode="&#x64a;" horiz-adv-x="341" arabic-form="medial" 
d="M0 104h140v356h127v-356h94v-104h-361v104zM215 -219c-20 0 -36.667 7.16699 -50 21.5s-20 31.5 -20 51.5c0 19.333 6.66699 36.166 20 50.499s30 21.5 50 21.5s36.5 -7.16699 49.5 -21.5s19.5 -31.166 19.5 -50.499c0 -20 -6.5 -37.167 -19.5 -51.5
s-29.5 -21.5 -49.5 -21.5zM52 -219c-20 0 -36.667 7.16699 -50 21.5s-20 31.5 -20 51.5c0 19.333 6.66699 36.166 20 50.499s30 21.5 50 21.5s36.5 -7.16699 49.5 -21.5s19.5 -31.166 19.5 -50.499c0 -20 -6.5 -37.167 -19.5 -51.5s-29.5 -21.5 -49.5 -21.5z" />
    <glyph glyph-name="uniFEF5" unicode="&#xfef5;" horiz-adv-x="644" arabic-form="isolated" 
d="M300 -10c-28 0 -55 1.83398 -81 5.50098s-49.667 8.16699 -71 13.5l12 125c22 -9.33301 46 -16.5 72 -21.5s51 -7.5 75 -7.5c48 0 83.167 8.5 105.5 25.5s33.5 44.5 33.5 82.5v510h128v-500c0 -34 -5 -65.167 -15 -93.5s-26 -52.833 -48 -73.5
s-50.333 -36.834 -85 -48.501s-76.667 -17.5 -126 -17.5zM178 500.001c-12 1.33301 -25.8311 2.49805 -41.498 3.49805s-30.834 2.16699 -45.501 3.5v80c32.667 4.66699 67.167 8.33398 103.5 11.001s73.5 3.33398 111.5 2.00098v-384
c-21.333 -7.33301 -42.333 -13.333 -63 -18s-42.334 -9 -65.001 -13v315zM40.002 709.999l105.998 83c12 -12 27.167 -21.167 45.5 -27.5s34.833 -9.5 49.5 -9.5c17.333 0 34.833 3 52.5 9s33.834 15.333 48.501 28v-92c-13.333 -11.333 -30.666 -20.5 -51.999 -27.5
s-42.333 -10.5 -63 -10.5c-14 0 -29 2.33301 -45 7s-29.667 12 -41 22l-59 -39z" />
    <glyph glyph-name="uniFEF6" unicode="&#xfef6;" horiz-adv-x="640" arabic-form="final" 
d="M643 0c-26 0 -51.168 4.33203 -75.501 12.999s-45.166 20.334 -62.499 35.001c-22 -18.667 -49.667 -33 -83 -43s-73 -15 -119 -15c-28 0 -55 1.83301 -81 5.5s-49.667 8.16699 -71 13.5l12 125c22 -9.33301 46 -16.5 72 -21.5s51 -7.5 75 -7.5
c48 0 83.167 8.5 105.5 25.5s33.5 44.5 33.5 82.5v510h128v-500c0 -32 -4.66699 -62 -14 -90c10.667 -9.33301 23 -16.5 37 -21.5s31 -7.5 51 -7.5h9v-104h-17zM180.999 499.999c-12 1.33301 -25.8311 2.49805 -41.498 3.49805s-30.834 2.16699 -45.501 3.5v80
c32.667 4.66699 67.167 8.33398 103.5 11.001s73.5 3.33398 111.5 2.00098v-384c-21.333 -7.33301 -42.333 -13.333 -63 -18s-42.334 -9 -65.001 -13v315zM40.001 709.997l105.998 83c12 -12 27.167 -21.167 45.5 -27.5s34.833 -9.5 49.5 -9.5c17.333 0 34.833 3 52.5 9
s33.834 15.333 48.501 28v-92c-13.333 -11.333 -30.666 -20.5 -51.999 -27.5s-42.333 -10.5 -63 -10.5c-14 0 -29 2.33301 -45 7s-29.667 12 -41 22l-59 -39z" />
    <glyph glyph-name="uniFEF7" unicode="&#xfef7;" horiz-adv-x="600" arabic-form="isolated" 
d="M256 -10c-28 0 -55 1.83398 -81 5.50098s-49.667 8.16699 -71 13.5l12 125c22 -9.33301 46 -16.5 72 -21.5s51 -7.5 75 -7.5c48 0 83.167 8.5 105.5 25.5s33.5 44.5 33.5 82.5v510h128v-500c0 -34 -5 -65.167 -15 -93.5s-26 -52.833 -48 -73.5
s-50.333 -36.834 -85 -48.501s-76.667 -17.5 -126 -17.5zM134 500.001c-12 1.33301 -25.8311 2.49805 -41.498 3.49805s-30.834 2.16699 -45.501 3.5v80c32.667 4.66699 67.167 8.33398 103.5 11.001s73.5 3.33398 111.5 2.00098v-384
c-21.333 -7.33301 -42.333 -13.333 -63 -18s-42.334 -9 -65.001 -13v315zM30.002 738.999c4 0 9.00098 -0.165039 15.001 -0.498047s12.5 -0.833008 19.5 -1.5s13.833 -1.5 20.5 -2.5s12.334 -2.16699 17.001 -3.5c-6 5.33301 -10.167 12.166 -12.5 20.499
s-3.5 17.5 -3.5 27.5c0 12 2.5 23.333 7.5 34s12.333 20.334 22 29.001s21.667 15.5 36 20.5s31.166 7.5 50.499 7.5c10 0 21.167 -1.33301 33.5 -4s23.5 -6.33398 33.5 -11.001l-22 -59c-6 3.33301 -13.333 6.16602 -22 8.49902s-17.334 3.5 -26.001 3.5
c-10 0 -18.5 -2.83301 -25.5 -8.5s-10.5 -13.167 -10.5 -22.5c0 -25.333 20.667 -38 62 -38h52v-74h-247v74z" />
    <glyph glyph-name="uniFEF8" unicode="&#xfef8;" horiz-adv-x="589" arabic-form="final" 
d="M592 0c-26 0 -51.168 4.33203 -75.501 12.999s-45.166 20.334 -62.499 35.001c-22 -18.667 -49.667 -33 -83 -43s-73 -15 -119 -15c-28 0 -55 1.83301 -81 5.5s-49.667 8.16699 -71 13.5l12 125c22 -9.33301 46 -16.5 72 -21.5s51 -7.5 75 -7.5
c48 0 83.167 8.5 105.5 25.5s33.5 44.5 33.5 82.5v510h128v-500c0 -32 -4.66699 -62 -14 -90c10.667 -9.33301 23 -16.5 37 -21.5s31 -7.5 51 -7.5h9v-104h-17zM129.999 499.999c-12 1.33301 -25.8311 2.49805 -41.498 3.49805s-30.834 2.16699 -45.501 3.5v80
c32.667 4.66699 67.167 8.33398 103.5 11.001s73.5 3.33398 111.5 2.00098v-384c-21.333 -7.33301 -42.333 -13.333 -63 -18s-42.334 -9 -65.001 -13v315zM30.001 738.997c4 0 9.00098 -0.165039 15.001 -0.498047s12.5 -0.833008 19.5 -1.5s13.833 -1.5 20.5 -2.5
s12.334 -2.16699 17.001 -3.5c-6 5.33301 -10.167 12.166 -12.5 20.499s-3.5 17.5 -3.5 27.5c0 12 2.5 23.333 7.5 34s12.333 20.334 22 29.001s21.667 15.5 36 20.5s31.166 7.5 50.499 7.5c10 0 21.167 -1.33301 33.5 -4s23.5 -6.33398 33.5 -11.001l-22 -59
c-6 3.33301 -13.333 6.16602 -22 8.49902s-17.334 3.5 -26.001 3.5c-10 0 -18.5 -2.83301 -25.5 -8.5s-10.5 -13.167 -10.5 -22.5c0 -25.333 20.667 -38 62 -38h52v-74h-247v74z" />
    <glyph glyph-name="uniFEF9" unicode="&#xfef9;" horiz-adv-x="593" arabic-form="isolated" 
d="M249 -10c-28 0 -55 1.83398 -81 5.50098s-49.667 8.16699 -71 13.5l12 125c22 -9.33301 46 -16.5 72 -21.5s51 -7.5 75 -7.5c48 0 83.167 8.5 105.5 25.5s33.5 44.5 33.5 82.5v510h128v-500c0 -34 -5 -65.167 -15 -93.5s-26 -52.833 -48 -73.5
s-50.333 -36.834 -85 -48.501s-76.667 -17.5 -126 -17.5zM127 622.001c-12 1.33301 -25.8311 2.49805 -41.498 3.49805s-30.834 2.16699 -45.501 3.5v80c32.667 4.66699 67.167 8.33398 103.5 11.001s73.5 3.33398 111.5 2.00098v-506
c-21.333 -7.33301 -42.333 -13.333 -63 -18s-42.334 -9 -65.001 -13v437zM77.002 -210.001c4 0 9.00098 -0.165039 15.001 -0.498047s12.5 -0.833008 19.5 -1.5s13.833 -1.5 20.5 -2.5s12.334 -2.16699 17.001 -3.5c-6 5.33301 -10.167 12.166 -12.5 20.499
s-3.5 17.5 -3.5 27.5c0 12 2.5 23.333 7.5 34s12.333 20.334 22 29.001s21.667 15.5 36 20.5s31.166 7.5 50.499 7.5c10 0 21.167 -1.33301 33.5 -4s23.5 -6.33398 33.5 -11.001l-22 -59c-6 3.33301 -13.333 6.16602 -22 8.49902s-17.334 3.5 -26.001 3.5
c-10 0 -18.5 -2.83301 -25.5 -8.5s-10.5 -13.167 -10.5 -22.5c0 -25.333 20.667 -38 62 -38h52v-74h-247v74z" />
    <glyph glyph-name="uniFEFA" unicode="&#xfefa;" horiz-adv-x="586" arabic-form="final" 
d="M589 0c-26 0 -51.168 4.33203 -75.501 12.999s-45.166 20.334 -62.499 35.001c-22 -18.667 -49.667 -33 -83 -43s-73 -15 -119 -15c-28 0 -55 1.83301 -81 5.5s-49.667 8.16699 -71 13.5l12 125c22 -9.33301 46 -16.5 72 -21.5s51 -7.5 75 -7.5
c48 0 83.167 8.5 105.5 25.5s33.5 44.5 33.5 82.5v510h128v-500c0 -32 -4.66699 -62 -14 -90c10.667 -9.33301 23 -16.5 37 -21.5s31 -7.5 51 -7.5h9v-104h-17zM126.999 621.999c-12 1.33301 -25.8311 2.49805 -41.498 3.49805s-30.834 2.16699 -45.501 3.5v80
c32.667 4.66699 67.167 8.33398 103.5 11.001s73.5 3.33398 111.5 2.00098v-506c-21.333 -7.33301 -42.333 -13.333 -63 -18s-42.334 -9 -65.001 -13v437zM86.001 -215.003c4 0 9.00098 -0.165039 15.001 -0.498047s12.5 -0.833008 19.5 -1.5s13.833 -1.5 20.5 -2.5
s12.334 -2.16699 17.001 -3.5c-6 5.33301 -10.167 12.166 -12.5 20.499s-3.5 17.5 -3.5 27.5c0 12 2.5 23.333 7.5 34s12.333 20.334 22 29.001s21.667 15.5 36 20.5s31.166 7.5 50.499 7.5c10 0 21.167 -1.33301 33.5 -4s23.5 -6.33398 33.5 -11.001l-22 -59
c-6 3.33301 -13.333 6.16602 -22 8.49902s-17.334 3.5 -26.001 3.5c-10 0 -18.5 -2.83301 -25.5 -8.5s-10.5 -13.167 -10.5 -22.5c0 -25.333 20.667 -38 62 -38h52v-74h-247v74z" />
    <glyph glyph-name="uniFEFB" unicode="&#xfefb;" horiz-adv-x="593" arabic-form="isolated" 
d="M249 -10c-28 0 -55 1.83398 -81 5.50098s-49.667 8.16699 -71 13.5l12 125c22 -9.33301 46 -16.5 72 -21.5s51 -7.5 75 -7.5c48 0 83.167 8.5 105.5 25.5s33.5 44.5 33.5 82.5v510h128v-500c0 -34 -5 -65.167 -15 -93.5s-26 -52.833 -48 -73.5
s-50.333 -36.834 -85 -48.501s-76.667 -17.5 -126 -17.5zM127 622.001c-12 1.33301 -25.8311 2.49805 -41.498 3.49805s-30.834 2.16699 -45.501 3.5v80c32.667 4.66699 67.167 8.33398 103.5 11.001s73.5 3.33398 111.5 2.00098v-506
c-21.333 -7.33301 -42.333 -13.333 -63 -18s-42.334 -9 -65.001 -13v437z" />
    </font>
</defs>
</svg>
